<?xml version="1.0" encoding="iso-8859-1"?>
<!-- Generator: Adobe Illustrator 19.0.0, SVG Export Plug-In . SVG Version: 6.00 Build 0)  -->
<svg version="1.1" id="Capa_1" xmlns="http://www.w3.org/2000/svg" xmlns:xlink="http://www.w3.org/1999/xlink" x="0px" y="0px"
	 viewBox="0 0 56 56" style="enable-background:new 0 0 56 56;" xml:space="preserve">
<line style="fill:none;stroke:#7F6E5D;stroke-width:2;stroke-linecap:round;stroke-miterlimit:10;" x1="1" y1="54.615" x2="55" y2="54.615"/>
<path style="fill:#E4ECF4;" d="M29.485,37.615h-2.97C25.678,37.615,25,36.937,25,36.1v-2.97c0-0.837,0.678-1.515,1.515-1.515h2.97
	c0.837,0,1.515,0.678,1.515,1.515v2.97C31,36.937,30.322,37.615,29.485,37.615z"/>
<path style="fill:#BDC3C7;" d="M47.686,48.029l-2.1-2.1c-0.592-0.592-0.592-1.551,0-2.143l2.1-2.1c0.592-0.592,1.551-0.592,2.143,0
	l2.1,2.1c0.592,0.592,0.592,1.551,0,2.143l-2.1,2.1C49.237,48.621,48.278,48.621,47.686,48.029z"/>
<path style="fill:#BDC3C7;" d="M4.171,48.029l-2.1-2.1c-0.592-0.592-0.592-1.551,0-2.143l2.1-2.1c0.592-0.592,1.551-0.592,2.143,0
	l2.1,2.1c0.592,0.592,0.592,1.551,0,2.143l-2.1,2.1C5.722,48.621,4.763,48.621,4.171,48.029z"/>
<path style="fill:#E4ECF4;" d="M32.544,7.171l-2.1-2.1c-0.592-0.592-0.592-1.551,0-2.143l2.1-2.1c0.592-0.592,1.551-0.592,2.143,0
	l2.1,2.1c0.592,0.592,0.592,1.551,0,2.143l-2.1,2.1C34.095,7.763,33.135,7.763,32.544,7.171z"/>
<path style="fill:#E4ECF4;" d="M15.314,21.171l-2.1-2.1c-0.592-0.592-0.592-1.551,0-2.143l2.1-2.1c0.592-0.592,1.551-0.592,2.143,0
	l2.1,2.1c0.592,0.592,0.592,1.551,0,2.143l-2.1,2.1C16.865,21.763,15.905,21.763,15.314,21.171z"/>
<g>
	<path style="fill:#E4ECF4;" d="M20.854,48.621c-0.55,0.054-0.951,0.543-0.897,1.093C19.985,50.01,20,50.311,20,50.615
		c0,0.553,0.447,1,1,1s1-0.447,1-1c0-0.37-0.019-0.736-0.054-1.097C21.893,48.969,21.415,48.571,20.854,48.621z"/>
	<path style="fill:#E4ECF4;" d="M20.466,47.229c0.499-0.236,0.712-0.833,0.475-1.332c-0.27-0.568-0.589-1.115-0.95-1.625
		c-0.319-0.45-0.943-0.559-1.394-0.239c-0.451,0.319-0.559,0.943-0.239,1.394c0.295,0.417,0.556,0.863,0.776,1.328
		c0.171,0.36,0.53,0.571,0.904,0.571C20.182,47.326,20.327,47.295,20.466,47.229z"/>
	<path style="fill:#E4ECF4;" d="M15.713,40.673c-0.496-0.239-1.094-0.023-1.331,0.476s-0.023,1.095,0.476,1.331
		c0.462,0.22,0.909,0.48,1.327,0.776c0.176,0.123,0.377,0.183,0.576,0.183c0.314,0,0.623-0.147,0.818-0.423
		c0.318-0.452,0.211-1.075-0.24-1.395C16.826,41.26,16.279,40.94,15.713,40.673z"/>
	<path style="fill:#E4ECF4;" d="M12.097,39.669c-0.36-0.035-0.727-0.054-1.097-0.054c-0.553,0-1,0.447-1,1s0.447,1,1,1
		c0.304,0,0.605,0.015,0.901,0.044c0.033,0.003,0.066,0.005,0.099,0.005c0.509,0,0.943-0.386,0.994-0.902
		C13.048,40.212,12.646,39.723,12.097,39.669z"/>
	<path style="fill:#E4ECF4;" d="M34.146,48.621c-0.56-0.051-1.039,0.348-1.093,0.897C33.019,49.879,33,50.245,33,50.615
		c0,0.553,0.447,1,1,1s1-0.447,1-1c0-0.304,0.015-0.605,0.044-0.901C35.098,49.164,34.696,48.675,34.146,48.621z"/>
	<path style="fill:#E4ECF4;" d="M35.01,44.272c-0.361,0.51-0.681,1.057-0.95,1.625c-0.237,0.499-0.024,1.096,0.475,1.332
		c0.139,0.065,0.284,0.097,0.428,0.097c0.374,0,0.733-0.211,0.904-0.571c0.221-0.465,0.481-0.911,0.776-1.328
		c0.319-0.45,0.212-1.074-0.239-1.394C35.953,43.714,35.329,43.822,35.01,44.272z"/>
	<path style="fill:#E4ECF4;" d="M39.287,40.673c-0.566,0.268-1.113,0.587-1.626,0.948c-0.451,0.319-0.559,0.942-0.24,1.395
		c0.195,0.275,0.504,0.423,0.818,0.423c0.199,0,0.4-0.06,0.576-0.183c0.418-0.296,0.865-0.557,1.327-0.776
		c0.499-0.236,0.713-0.832,0.476-1.331C40.382,40.648,39.785,40.436,39.287,40.673z"/>
	<path style="fill:#E4ECF4;" d="M44,39.615c-0.37,0-0.736,0.019-1.097,0.054c-0.55,0.054-0.951,0.543-0.897,1.093
		c0.051,0.517,0.485,0.902,0.994,0.902c0.032,0,0.065-0.002,0.099-0.005c0.296-0.029,0.598-0.044,0.901-0.044c0.553,0,1-0.447,1-1
		S44.553,39.615,44,39.615z"/>
</g>
<g>
</g>
<g>
</g>
<g>
</g>
<g>
</g>
<g>
</g>
<g>
</g>
<g>
</g>
<g>
</g>
<g>
</g>
<g>
</g>
<g>
</g>
<g>
</g>
<g>
</g>
<g>
</g>
<g>
</g>
</svg>
