<?xml version="1.0" encoding="iso-8859-1"?>
<!-- Generator: Adobe Illustrator 19.0.0, SVG Export Plug-In . SVG Version: 6.00 Build 0)  -->
<svg version="1.1" id="Capa_1" xmlns="http://www.w3.org/2000/svg" xmlns:xlink="http://www.w3.org/1999/xlink" x="0px" y="0px"
	 viewBox="0 0 58 58" style="enable-background:new 0 0 58 58;" xml:space="preserve">
<path style="fill:#BDC3C7;" d="M18,29c0-7.805,4.48-14.547,11-17.843C26.292,9.788,23.241,9,20,9C8.954,9,0,17.954,0,29
	c0,11.046,8.954,20,20,20c3.241,0,6.292-0.788,9-2.157C22.48,43.547,18,36.804,18,29z"/>
<g>
	<circle style="fill:#95A5A5;" cx="16" cy="20" r="1"/>
	<circle style="fill:#95A5A5;" cx="20" cy="20" r="1"/>
	<circle style="fill:#95A5A5;" cx="18" cy="18" r="1"/>
	<circle style="fill:#95A5A5;" cx="20" cy="16" r="1"/>
	<circle style="fill:#95A5A5;" cx="12" cy="17" r="1"/>
	<circle style="fill:#95A5A5;" cx="11" cy="34" r="1"/>
	<circle style="fill:#95A5A5;" cx="22" cy="14" r="1"/>
	<circle style="fill:#95A5A5;" cx="24" cy="12" r="1"/>
	<circle style="fill:#95A5A5;" cx="20" cy="12" r="1"/>
	<circle style="fill:#95A5A5;" cx="18" cy="14" r="1"/>
	<circle style="fill:#95A5A5;" cx="18" cy="22" r="1"/>
	<circle style="fill:#95A5A5;" cx="14" cy="26" r="1"/>
	<circle style="fill:#95A5A5;" cx="16" cy="24" r="1"/>
	<circle style="fill:#95A5A5;" cx="18" cy="26" r="1"/>
	<circle style="fill:#95A5A5;" cx="16" cy="28" r="1"/>
	<circle style="fill:#95A5A5;" cx="14" cy="30" r="1"/>
	<circle style="fill:#95A5A5;" cx="16" cy="32" r="1"/>
	<circle style="fill:#95A5A5;" cx="16" cy="36" r="1"/>
	<circle style="fill:#95A5A5;" cx="18" cy="34" r="1"/>
	<circle style="fill:#95A5A5;" cx="18" cy="30" r="1"/>
	<circle style="fill:#95A5A5;" cx="18" cy="38" r="1"/>
	<circle style="fill:#95A5A5;" cx="16" cy="40" r="1"/>
	<circle style="fill:#95A5A5;" cx="18" cy="42" r="1"/>
	<circle style="fill:#95A5A5;" cx="20" cy="40" r="1"/>
	<circle style="fill:#95A5A5;" cx="20" cy="44" r="1"/>
	<circle style="fill:#95A5A5;" cx="22" cy="42" r="1"/>
	<circle style="fill:#95A5A5;" cx="22" cy="46" r="1"/>
	<circle style="fill:#95A5A5;" cx="26" cy="46" r="1"/>
	<circle style="fill:#95A5A5;" cx="24" cy="44" r="1"/>
	<path style="fill:#95A5A5;" d="M1.263,22.059C0.46,24.224,0,26.556,0,29c0,1.368,0.139,2.704,0.401,3.995
		C0.434,32.996,0.467,33,0.5,33C3.538,33,6,30.538,6,27.5C6,24.722,3.938,22.431,1.263,22.059z"/>
	<path style="fill:#95A5A5;" d="M15.5,43c-2.271,0-4.129,1.688-4.437,3.873c2.616,1.311,5.551,2.071,8.666,2.113
		C19.893,48.519,20,48.024,20,47.5C20,45.015,17.985,43,15.5,43z"/>
</g>
<circle style="fill:#F0C419;" cx="38" cy="29" r="20"/>
<g>
	<path style="fill:#F0C419;" d="M25.866,5.983C25.59,5.504,24.978,5.341,24.5,5.617c-0.479,0.276-0.642,0.888-0.366,1.366l1.5,2.598
		c0.186,0.321,0.521,0.5,0.867,0.5c0.169,0,0.342-0.043,0.499-0.134c0.479-0.276,0.642-0.888,0.366-1.366L25.866,5.983z"/>
	<path style="fill:#F0C419;" d="M38,51c-0.552,0-1,0.447-1,1v3c0,0.553,0.448,1,1,1s1-0.447,1-1v-3C39,51.447,38.552,51,38,51z"/>
	<path style="fill:#F0C419;" d="M38,2c-0.552,0-1,0.447-1,1v3c0,0.553,0.448,1,1,1s1-0.447,1-1V3C39,2.447,38.552,2,38,2z"/>
	<path style="fill:#F0C419;" d="M57.092,9.908c-0.391-0.391-1.023-0.391-1.414,0l-2.121,2.121c-0.391,0.391-0.391,1.023,0,1.414
		c0.195,0.195,0.451,0.293,0.707,0.293s0.512-0.098,0.707-0.293l2.121-2.121C57.482,10.932,57.482,10.299,57.092,9.908z"/>
	<path style="fill:#F0C419;" d="M32.306,50.25c-0.532-0.144-1.082,0.173-1.225,0.707l-0.777,2.898
		c-0.143,0.533,0.173,1.082,0.707,1.225c0.086,0.023,0.174,0.034,0.259,0.034c0.441,0,0.846-0.294,0.965-0.741l0.777-2.898
		C33.156,50.941,32.84,50.393,32.306,50.25z"/>
	<path style="fill:#F0C419;" d="M44.988,2.92c-0.531-0.144-1.082,0.174-1.225,0.707l-0.777,2.898
		c-0.143,0.533,0.173,1.082,0.707,1.225c0.086,0.023,0.174,0.034,0.259,0.034c0.441,0,0.846-0.294,0.965-0.741l0.777-2.898
		C45.838,3.611,45.522,3.063,44.988,2.92z"/>
	<path style="fill:#F0C419;" d="M32.236,3.627c-0.143-0.534-0.692-0.852-1.225-0.707c-0.534,0.143-0.85,0.691-0.707,1.225
		l0.777,2.898c0.12,0.447,0.524,0.741,0.965,0.741c0.085,0,0.173-0.011,0.259-0.034c0.534-0.143,0.85-0.691,0.707-1.225
		L32.236,3.627z"/>
	<path style="fill:#F0C419;" d="M44.918,50.957c-0.143-0.534-0.69-0.852-1.225-0.707c-0.534,0.143-0.85,0.691-0.707,1.225
		l0.777,2.898c0.12,0.447,0.524,0.741,0.965,0.741c0.085,0,0.173-0.011,0.259-0.034c0.534-0.143,0.85-0.691,0.707-1.225
		L44.918,50.957z"/>
	<path style="fill:#F0C419;" d="M50.366,48.419c-0.277-0.479-0.889-0.643-1.366-0.366c-0.479,0.276-0.642,0.888-0.366,1.366
		l1.5,2.598c0.186,0.321,0.521,0.5,0.867,0.5c0.169,0,0.342-0.043,0.499-0.134c0.479-0.276,0.642-0.888,0.366-1.366L50.366,48.419z"
		/>
	<path style="fill:#F0C419;" d="M27,48.053c-0.479-0.276-1.09-0.113-1.366,0.366l-1.5,2.598c-0.276,0.479-0.112,1.09,0.366,1.366
		c0.157,0.091,0.33,0.134,0.499,0.134c0.346,0,0.682-0.179,0.867-0.5l1.5-2.598C27.642,48.94,27.479,48.329,27,48.053z"/>
	<path style="fill:#F0C419;" d="M51.5,5.617c-0.479-0.276-1.09-0.113-1.366,0.366l-1.5,2.598C48.358,9.06,48.521,9.671,49,9.947
		c0.157,0.091,0.33,0.134,0.499,0.134c0.346,0,0.682-0.179,0.867-0.5l1.5-2.598C52.142,6.505,51.979,5.894,51.5,5.617z"/>
</g>
<path style="fill:#FBD490;" d="M38,9c-0.478,0-0.945,0.039-1.414,0.071C31.909,13.614,29,19.966,29,27
	c0,9.268,5.047,17.351,12.538,21.669C50.893,46.996,58,38.836,58,29C58,17.954,49.046,9,38,9z"/>
<g>
</g>
<g>
</g>
<g>
</g>
<g>
</g>
<g>
</g>
<g>
</g>
<g>
</g>
<g>
</g>
<g>
</g>
<g>
</g>
<g>
</g>
<g>
</g>
<g>
</g>
<g>
</g>
<g>
</g>
</svg>
