<?xml version="1.0" encoding="iso-8859-1"?>
<!-- Generator: Adobe Illustrator 19.0.0, SVG Export Plug-In . SVG Version: 6.00 Build 0)  -->
<svg version="1.1" id="Capa_1" xmlns="http://www.w3.org/2000/svg" xmlns:xlink="http://www.w3.org/1999/xlink" x="0px" y="0px"
	 viewBox="0 0 58 58" style="enable-background:new 0 0 58 58;" xml:space="preserve">
<path style="fill:#E4ECF4;" d="M15.046,40.737c3.873-3.954,10.099-3.941,13.954,0.043c3.869-4,10.131-4,14,0
	c1.868-1.931,4.294-2.92,6.738-2.987c2.065-2.586,3.573-5.552,4.429-8.708c-0.264,0.144-0.527,0.289-0.798,0.425
	c-11.852,5.935-26.271,1.138-32.206-10.714c-2.748-5.488-3.191-11.524-1.702-17.016C8.197,7.953,3.745,21.98,9.544,33.561
	C10.949,36.368,12.836,38.771,15.046,40.737z"/>
<g>
	<path style="fill:#84B5CB;" d="M50,43.781c-2.589,0-5.04,0.925-7,2.624c-1.96-1.699-4.411-2.624-7-2.624s-5.04,0.925-7,2.624
		c-1.96-1.699-4.411-2.624-7-2.624s-5.04,0.925-7,2.624c-1.96-1.699-4.411-2.624-7-2.624c-2.916,0-5.657,1.174-7.719,3.305
		c-0.384,0.397-0.373,1.03,0.023,1.414c0.397,0.385,1.03,0.374,1.414-0.023C3.4,46.738,5.631,45.781,8,45.781s4.6,0.957,6.281,2.695
		L15,49.219l0.719-0.743c1.682-1.738,3.912-2.695,6.281-2.695s4.6,0.957,6.281,2.695L29,49.219l0.719-0.743
		c1.682-1.738,3.912-2.695,6.281-2.695s4.6,0.957,6.281,2.695L43,49.219l0.719-0.743c1.682-1.738,3.912-2.695,6.281-2.695
		s4.6,0.957,6.281,2.695c0.385,0.397,1.018,0.409,1.414,0.023c0.396-0.384,0.407-1.017,0.023-1.414
		C55.657,44.954,52.916,43.781,50,43.781z"/>
	<path style="fill:#84B5CB;" d="M1.719,41.476C3.4,39.738,5.631,38.781,8,38.781s4.6,0.957,6.281,2.695L15,42.219l0.719-0.743
		c1.682-1.738,3.912-2.695,6.281-2.695s4.6,0.957,6.281,2.695L29,42.219l0.719-0.743c1.682-1.738,3.912-2.695,6.281-2.695
		s4.6,0.957,6.281,2.695L43,42.219l0.719-0.743c1.682-1.738,3.912-2.695,6.281-2.695s4.6,0.957,6.281,2.695
		c0.385,0.396,1.018,0.409,1.414,0.023c0.396-0.384,0.407-1.017,0.023-1.414c-2.062-2.131-4.803-3.305-7.719-3.305
		c-2.589,0-5.04,0.925-7,2.624c-1.96-1.699-4.411-2.624-7-2.624s-5.04,0.925-7,2.624c-1.96-1.699-4.411-2.624-7-2.624
		s-5.04,0.925-7,2.624c-1.96-1.699-4.411-2.624-7-2.624c-2.916,0-5.657,1.174-7.719,3.305c-0.384,0.397-0.373,1.03,0.023,1.414
		C0.702,41.885,1.335,41.872,1.719,41.476z"/>
	<path style="fill:#84B5CB;" d="M50,50.781c-2.589,0-5.04,0.925-7,2.624c-1.96-1.699-4.411-2.624-7-2.624s-5.04,0.925-7,2.624
		c-1.96-1.699-4.411-2.624-7-2.624s-5.04,0.925-7,2.624c-1.96-1.699-4.411-2.624-7-2.624c-2.916,0-5.657,1.174-7.719,3.305
		c-0.384,0.397-0.373,1.03,0.023,1.414c0.397,0.385,1.03,0.373,1.414-0.023C3.4,53.738,5.631,52.781,8,52.781s4.6,0.957,6.281,2.695
		L15,56.219l0.719-0.743c1.682-1.738,3.912-2.695,6.281-2.695s4.6,0.957,6.281,2.695L29,56.219l0.719-0.743
		c1.682-1.738,3.912-2.695,6.281-2.695s4.6,0.957,6.281,2.695L43,56.219l0.719-0.743c1.682-1.738,3.912-2.695,6.281-2.695
		s4.6,0.957,6.281,2.695c0.385,0.396,1.018,0.409,1.414,0.023c0.396-0.384,0.407-1.017,0.023-1.414
		C55.657,51.954,52.916,50.781,50,50.781z"/>
</g>
<g>
</g>
<g>
</g>
<g>
</g>
<g>
</g>
<g>
</g>
<g>
</g>
<g>
</g>
<g>
</g>
<g>
</g>
<g>
</g>
<g>
</g>
<g>
</g>
<g>
</g>
<g>
</g>
<g>
</g>
</svg>
