<?xml version="1.0" encoding="iso-8859-1"?>
<!-- Generator: Adobe Illustrator 19.0.0, SVG Export Plug-In . SVG Version: 6.00 Build 0)  -->
<svg version="1.1" id="Capa_1" xmlns="http://www.w3.org/2000/svg" xmlns:xlink="http://www.w3.org/1999/xlink" x="0px" y="0px"
	 viewBox="0 0 56 56" style="enable-background:new 0 0 56 56;" xml:space="preserve">
<g>
	<path style="fill:#95A5A5;" d="M28,0v56c15.464,0,28-12.536,28-28C56,12.536,43.464,0,28,0z"/>
</g>
<path style="fill:#BDC3C7;" d="M0,28C0,12.536,12.536,0,28,0v56C12.536,56,0,43.464,0,28z"/>
<circle style="fill:#BDC3C7;" cx="33" cy="47" r="1"/>
<circle style="fill:#BDC3C7;" cx="41" cy="47" r="1"/>
<circle style="fill:#BDC3C7;" cx="29" cy="43" r="1"/>
<circle style="fill:#BDC3C7;" cx="37" cy="43" r="1"/>
<circle style="fill:#BDC3C7;" cx="29" cy="51" r="1"/>
<circle style="fill:#BDC3C7;" cx="37" cy="51" r="1"/>
<circle style="fill:#BDC3C7;" cx="33" cy="39" r="1"/>
<circle style="fill:#BDC3C7;" cx="41" cy="39" r="1"/>
<circle style="fill:#BDC3C7;" cx="29" cy="35" r="1"/>
<circle style="fill:#BDC3C7;" cx="37" cy="35" r="1"/>
<circle style="fill:#BDC3C7;" cx="33" cy="31" r="1"/>
<circle style="fill:#BDC3C7;" cx="41" cy="31" r="1"/>
<circle style="fill:#BDC3C7;" cx="29" cy="27" r="1"/>
<circle style="fill:#BDC3C7;" cx="37" cy="27" r="1"/>
<circle style="fill:#BDC3C7;" cx="33" cy="23" r="1"/>
<circle style="fill:#BDC3C7;" cx="41" cy="23" r="1"/>
<circle style="fill:#BDC3C7;" cx="29" cy="19" r="1"/>
<circle style="fill:#BDC3C7;" cx="37" cy="19" r="1"/>
<circle style="fill:#BDC3C7;" cx="33" cy="15" r="1"/>
<circle style="fill:#BDC3C7;" cx="41" cy="15" r="1"/>
<circle style="fill:#BDC3C7;" cx="29" cy="11" r="1"/>
<circle style="fill:#BDC3C7;" cx="37" cy="11" r="1"/>
<circle style="fill:#BDC3C7;" cx="33" cy="7" r="1"/>
<circle style="fill:#BDC3C7;" cx="41" cy="7" r="1"/>
<circle style="fill:#BDC3C7;" cx="29" cy="3" r="1"/>
<circle style="fill:#BDC3C7;" cx="37" cy="3" r="1"/>
<circle style="fill:#BDC3C7;" cx="45" cy="43" r="1"/>
<circle style="fill:#BDC3C7;" cx="49" cy="39" r="1"/>
<circle style="fill:#BDC3C7;" cx="45" cy="35" r="1"/>
<circle style="fill:#BDC3C7;" cx="53" cy="35" r="1"/>
<circle style="fill:#BDC3C7;" cx="49" cy="31" r="1"/>
<circle style="fill:#BDC3C7;" cx="45" cy="27" r="1"/>
<circle style="fill:#BDC3C7;" cx="53" cy="27" r="1"/>
<circle style="fill:#BDC3C7;" cx="49" cy="23" r="1"/>
<circle style="fill:#BDC3C7;" cx="45" cy="19" r="1"/>
<circle style="fill:#BDC3C7;" cx="53" cy="19" r="1"/>
<circle style="fill:#BDC3C7;" cx="49" cy="15" r="1"/>
<circle style="fill:#BDC3C7;" cx="45" cy="11" r="1"/>
<g>
</g>
<g>
</g>
<g>
</g>
<g>
</g>
<g>
</g>
<g>
</g>
<g>
</g>
<g>
</g>
<g>
</g>
<g>
</g>
<g>
</g>
<g>
</g>
<g>
</g>
<g>
</g>
<g>
</g>
</svg>
