<?xml version="1.0" encoding="iso-8859-1"?>
<!-- Generator: Adobe Illustrator 19.0.0, SVG Export Plug-In . SVG Version: 6.00 Build 0)  -->
<svg version="1.1" id="Capa_1" xmlns="http://www.w3.org/2000/svg" xmlns:xlink="http://www.w3.org/1999/xlink" x="0px" y="0px"
	 viewBox="0 0 60.003 60.003" style="enable-background:new 0 0 60.003 60.003;" xml:space="preserve">
<g>
	<path style="fill:#D0E8F9;" d="M57.972,20.866c0.353-1.214,0.239-2.519-0.661-3.407c-5.149-5.082-11.353-1.481-11.353,3.542
		c0,0.553-0.447,1-1,1s-1-0.447-1-1c0-4.064,3.049-7.423,6.978-7.927c-0.226-5.039-4.384-9.073-9.478-9.073
		c-5.111,0-9.281,4.06-9.481,9.123c0.829,0.196,1.632,0.52,2.378,0.981c1.816,1.125,3.086,2.89,3.576,4.97
		c0.126,0.538-0.207,1.076-0.744,1.203c-0.564,0.127-1.127-0.239-1.218-0.822c-0.25-1.6-1.017-3.113-2.487-3.791
		c-5.696-2.628-10.262,2.01-9.178,6.617c0.126,0.537-0.207,1.075-0.745,1.202c-0.076,0.018-0.153,0.026-0.229,0.026
		c-0.453,0-0.864-0.311-0.973-0.771c-0.294-1.251-0.268-2.502,0.012-3.674c-2.058-0.301-4.137,0.476-5.493,2.122
		c-1.258,1.529-1.625,3.498-1.175,5.285c0.001,0.012,0.007,0.022,0.008,0.034c0.306,1.186,0.97,2.29,1.985,3.127
		c0.426,0.352,0.487,0.981,0.137,1.408c-0.198,0.24-0.484,0.364-0.773,0.364c-0.224,0-0.448-0.074-0.635-0.228
		c-1.217-1.002-2.088-2.311-2.546-3.781c-4.043-1.054-8.294,0.647-10.49,4.262c-2.035,3.349-1.868,7.615,0.772,11.06
		c0.651,0.85,1.574,1.417,2.458,2.02c0.436,0.298,0.568,0.888,0.29,1.345c-0.188,0.31-0.518,0.48-0.855,0.48
		c-0.133,0-0.265-0.036-0.392-0.091c0.659,0.391,1.369,0.701,2.103,0.956c3.872-10.176,13.723-17.428,25.241-17.428
		c6.343,0,12.18,2.201,16.791,5.877c4.051,3.23,10.169,0.51,10.208-4.671c0-0.044,0-0.087,0-0.131v-6.131
		c0-1.535-0.958-2.731-1.992-3.865C57.962,21.027,57.945,20.957,57.972,20.866z"/>
</g>
<path style="fill:#E64C3C;" d="M11.029,58.002c-0.015-0.332-0.025-0.665-0.025-1c0-12.131,9.869-22,22-22s22,9.869,22,22
	c0,0.335-0.01,0.668-0.025,1h4c0.013-0.332,0.025-0.665,0.025-1c0-14.359-11.641-26-26-26s-26,11.641-26,26
	c0,0.335,0.013,0.668,0.025,1H11.029z"/>
<path style="fill:#F0C419;" d="M15.054,58.002c-0.018-0.333-0.051-0.662-0.051-1c0-9.925,8.075-18,18-18s18,8.075,18,18
	c0,0.338-0.032,0.667-0.051,1h4.025c0.015-0.332,0.025-0.665,0.025-1c0-12.131-9.869-22-22-22s-22,9.869-22,22
	c0,0.335,0.01,0.668,0.025,1H15.054z"/>
<path style="fill:#71C285;" d="M19.054,58.002c-0.024-0.332-0.051-0.662-0.051-1c0-7.72,6.28-14,14-14s14,6.28,14,14
	c0,0.338-0.027,0.668-0.051,1h4c0.018-0.333,0.051-0.662,0.051-1c0-9.925-8.075-18-18-18s-18,8.075-18,18
	c0,0.338,0.032,0.667,0.051,1H19.054z"/>
<path style="fill:#0096E6;" d="M23.054,58.002c-0.033-0.329-0.051-0.662-0.051-1c0-5.514,4.486-10,10-10s10,4.486,10,10
	c0,0.338-0.018,0.671-0.051,1h4c0.024-0.332,0.051-0.662,0.051-1c0-7.72-6.28-14-14-14s-14,6.28-14,14c0,0.338,0.027,0.668,0.051,1
	H23.054z"/>
<path style="fill:#546A79;" d="M27.094,58.002c-0.055-0.326-0.09-0.659-0.09-1c0-3.309,2.691-6,6-6s6,2.691,6,6
	c0,0.341-0.035,0.674-0.09,1h4.04c0.033-0.329,0.051-0.662,0.051-1c0-5.514-4.486-10-10-10s-10,4.486-10,10
	c0,0.338,0.018,0.671,0.051,1H27.094z"/>
<g>
	<path style="fill:#ABCADD;" d="M52.936,13.068C52.705,6.929,47.652,2.002,41.458,2.002c-6.142,0-11.16,4.844-11.47,10.91
		c-0.558,0.012-1.119,0.078-1.676,0.209c-2.336,0.55-4.185,2.082-5.229,4.052c-2.882-0.585-5.848,0.433-7.75,2.742
		c-1.251,1.52-1.879,3.408-1.81,5.359c-4.63-0.834-9.34,1.224-11.844,5.344c-1.596,2.625-2.073,5.714-1.345,8.698
		s2.575,5.506,5.2,7.102c0.162,0.099,0.342,0.146,0.519,0.146c0.338,0,0.667-0.171,0.855-0.48c0.287-0.473,0.137-1.087-0.335-1.374
		c-2.169-1.318-3.694-3.401-4.296-5.867c-0.602-2.465-0.207-5.017,1.11-7.185c2.196-3.614,6.447-5.315,10.49-4.262
		c0.458,1.471,1.33,2.779,2.546,3.781c0.187,0.153,0.411,0.228,0.635,0.228c0.289,0,0.575-0.124,0.773-0.364
		c0.351-0.427,0.289-1.057-0.137-1.408c-1.016-0.836-1.679-1.941-1.985-3.127c-0.001-0.012-0.007-0.022-0.008-0.034
		c-0.45-1.787-0.083-3.756,1.175-5.285c1.356-1.646,3.435-2.423,5.493-2.122c-0.28,1.173-0.307,2.423-0.012,3.674
		c0.108,0.461,0.52,0.771,0.973,0.771c0.076,0,0.153-0.009,0.229-0.026c0.538-0.127,0.871-0.665,0.745-1.202
		c-0.758-3.221,1.246-6.457,4.467-7.215c3.215-0.759,6.456,1.245,7.214,4.467c0.127,0.537,0.665,0.865,1.203,0.744
		c0.537-0.127,0.87-0.665,0.744-1.203c-0.49-2.08-1.76-3.845-3.576-4.97c-0.746-0.462-1.549-0.785-2.378-0.981
		c0.2-5.063,4.37-9.123,9.481-9.123c5.094,0,9.253,4.033,9.478,9.073c-3.929,0.504-6.978,3.863-6.978,7.927c0,0.553,0.447,1,1,1
		s1-0.447,1-1c0-3.309,2.691-6,6-6s6.046,2.691,6.046,6c0,0.028,0,1.327,0,3c0,0.552,0.448,1,1,1s1-0.448,1-1v-3
		C60.003,16.922,56.886,13.552,52.936,13.068z"/>
	<path style="fill:#ABCADD;" d="M59.003,30.002c-0.552,0-1,0.448-1,1c0,1.442,0,0.5,0,0.5c0,2.481-2.019,4.5-4.5,4.5
		s-4.5-2.019-4.5-4.5c0-0.553-0.448-1-1-1s-1,0.447-1,1c0,3.584,2.916,6.5,6.5,6.5c3.415,0,6.243-2.649,6.5-6v-1
		C60.003,30.449,59.556,30.002,59.003,30.002z"/>
</g>
<g>
</g>
<g>
</g>
<g>
</g>
<g>
</g>
<g>
</g>
<g>
</g>
<g>
</g>
<g>
</g>
<g>
</g>
<g>
</g>
<g>
</g>
<g>
</g>
<g>
</g>
<g>
</g>
<g>
</g>
</svg>
