<?xml version="1.0" encoding="iso-8859-1"?>
<!-- Generator: Adobe Illustrator 19.0.0, SVG Export Plug-In . SVG Version: 6.00 Build 0)  -->
<svg version="1.1" id="Capa_1" xmlns="http://www.w3.org/2000/svg" xmlns:xlink="http://www.w3.org/1999/xlink" x="0px" y="0px"
	 viewBox="0 0 52 52" style="enable-background:new 0 0 52 52;" xml:space="preserve">
<path style="fill:#E4ECF4;" d="M51,25h-2.586l2.293-2.293c0.391-0.391,0.391-1.023,0-1.414s-1.023-0.391-1.414,0L45.586,25h-5.172
	l2.293-2.293c0.391-0.391,0.391-1.023,0-1.414s-1.023-0.391-1.414,0L37.586,25h-9.172l11-11H45c0.553,0,1-0.447,1-1s-0.447-1-1-1
	h-3.586l3.293-3.293c0.391-0.391,0.391-1.023,0-1.414s-1.023-0.391-1.414,0L40,10.586V7c0-0.553-0.447-1-1-1s-1,0.447-1,1v5.586
	l-11,11v-9.172l3.707-3.707c0.391-0.391,0.391-1.023,0-1.414s-1.023-0.391-1.414,0L27,11.586V6.414l3.707-3.707
	c0.391-0.391,0.391-1.023,0-1.414s-1.023-0.391-1.414,0L27,3.586V1c0-0.553-0.447-1-1-1s-1,0.447-1,1v2.586l-2.293-2.293
	c-0.391-0.391-1.023-0.391-1.414,0s-0.391,1.023,0,1.414L25,6.414v5.172l-2.293-2.293c-0.391-0.391-1.023-0.391-1.414,0
	s-0.391,1.023,0,1.414L25,14.414v9.172l-11-11V7c0-0.553-0.447-1-1-1s-1,0.447-1,1v3.586L8.707,7.293
	c-0.391-0.391-1.023-0.391-1.414,0s-0.391,1.023,0,1.414L10.586,12H7c-0.553,0-1,0.447-1,1s0.447,1,1,1h5.586l11,11h-9.172
	l-3.707-3.707c-0.391-0.391-1.023-0.391-1.414,0s-0.391,1.023,0,1.414L11.586,25H6.414l-3.707-3.707
	c-0.391-0.391-1.023-0.391-1.414,0s-0.391,1.023,0,1.414L3.586,25H1c-0.553,0-1,0.447-1,1s0.447,1,1,1h2.586l-2.293,2.293
	c-0.391,0.391-0.391,1.023,0,1.414C1.488,30.902,1.744,31,2,31s0.512-0.098,0.707-0.293L6.414,27h5.172l-2.293,2.293
	c-0.391,0.391-0.391,1.023,0,1.414C9.488,30.902,9.744,31,10,31s0.512-0.098,0.707-0.293L14.414,27h9.172l-11,11H7
	c-0.553,0-1,0.447-1,1s0.447,1,1,1h3.586l-3.293,3.293c-0.391,0.391-0.391,1.023,0,1.414C7.488,44.902,7.744,45,8,45
	s0.512-0.098,0.707-0.293L12,41.414V45c0,0.553,0.447,1,1,1s1-0.447,1-1v-5.586l11-11v9.172l-3.707,3.707
	c-0.391,0.391-0.391,1.023,0,1.414C21.488,42.902,21.744,43,22,43s0.512-0.098,0.707-0.293L25,40.414v5.172l-3.707,3.707
	c-0.391,0.391-0.391,1.023,0,1.414C21.488,50.902,21.744,51,22,51s0.512-0.098,0.707-0.293L25,48.414V51c0,0.553,0.447,1,1,1
	s1-0.447,1-1v-2.586l2.293,2.293C29.488,50.902,29.744,51,30,51s0.512-0.098,0.707-0.293c0.391-0.391,0.391-1.023,0-1.414L27,45.586
	v-5.172l2.293,2.293C29.488,42.902,29.744,43,30,43s0.512-0.098,0.707-0.293c0.391-0.391,0.391-1.023,0-1.414L27,37.586v-9.172
	l11,11V45c0,0.553,0.447,1,1,1s1-0.447,1-1v-3.586l3.293,3.293C43.488,44.902,43.744,45,44,45s0.512-0.098,0.707-0.293
	c0.391-0.391,0.391-1.023,0-1.414L41.414,40H45c0.553,0,1-0.447,1-1s-0.447-1-1-1h-5.586l-11-11h9.172l3.707,3.707
	C41.488,30.902,41.744,31,42,31s0.512-0.098,0.707-0.293c0.391-0.391,0.391-1.023,0-1.414L40.414,27h5.172l3.707,3.707
	C49.488,30.902,49.744,31,50,31s0.512-0.098,0.707-0.293c0.391-0.391,0.391-1.023,0-1.414L48.414,27H51c0.553,0,1-0.447,1-1
	S51.553,25,51,25z"/>
<g>
</g>
<g>
</g>
<g>
</g>
<g>
</g>
<g>
</g>
<g>
</g>
<g>
</g>
<g>
</g>
<g>
</g>
<g>
</g>
<g>
</g>
<g>
</g>
<g>
</g>
<g>
</g>
<g>
</g>
</svg>
