<?xml version="1.0" encoding="iso-8859-1"?>
<!-- Generator: Adobe Illustrator 19.0.0, SVG Export Plug-In . SVG Version: 6.00 Build 0)  -->
<svg version="1.1" id="Capa_1" xmlns="http://www.w3.org/2000/svg" xmlns:xlink="http://www.w3.org/1999/xlink" x="0px" y="0px"
	 viewBox="0 0 51.2 51.2" style="enable-background:new 0 0 51.2 51.2;" xml:space="preserve">
<polygon style="fill:#F0C419;stroke:#F0C419;stroke-width:2;stroke-linecap:round;stroke-miterlimit:10;" points="9.007,34.836 
	11.126,39.131 15.865,39.819 12.436,43.162 13.246,47.881 9.007,45.653 4.769,47.881 5.578,43.162 2.149,39.819 6.888,39.131 "/>
<path style="fill:#F0C419;" d="M10.006,30.047c-0.214,0-0.431-0.068-0.612-0.211c-0.437-0.339-0.516-0.967-0.176-1.402l1.228-1.579
	c0.338-0.436,0.968-0.518,1.402-0.176c0.437,0.339,0.516,0.967,0.176,1.402l-1.228,1.579C10.6,29.915,10.305,30.047,10.006,30.047z
	 M13.69,25.311c-0.214,0-0.431-0.068-0.613-0.211c-0.436-0.339-0.514-0.967-0.175-1.403l1.228-1.578
	c0.34-0.434,0.967-0.515,1.403-0.175c0.436,0.339,0.515,0.967,0.175,1.403l-1.228,1.578C14.283,25.178,13.988,25.311,13.69,25.311z
	 M17.374,20.575c-0.214,0-0.431-0.068-0.613-0.211c-0.436-0.339-0.514-0.967-0.175-1.403l1.228-1.578
	c0.339-0.434,0.967-0.515,1.403-0.175c0.436,0.339,0.514,0.967,0.175,1.403l-1.228,1.578C17.966,20.442,17.671,20.575,17.374,20.575
	z M21.057,15.839c-0.214,0-0.431-0.068-0.613-0.211c-0.436-0.339-0.514-0.967-0.175-1.403l1.229-1.579
	c0.34-0.434,0.967-0.515,1.403-0.175c0.436,0.339,0.514,0.967,0.175,1.403l-1.229,1.579C21.65,15.707,21.355,15.839,21.057,15.839z
	 M24.741,11.103c-0.214,0-0.431-0.068-0.613-0.211c-0.436-0.339-0.514-0.967-0.175-1.403l1.229-1.579
	c0.34-0.434,0.967-0.515,1.403-0.175c0.436,0.339,0.514,0.967,0.175,1.403l-1.229,1.579C25.334,10.97,25.039,11.103,24.741,11.103z
	 M28.424,6.367c-0.215,0-0.431-0.068-0.613-0.211c-0.436-0.339-0.514-0.968-0.175-1.403l1.229-1.578
	C29.204,2.739,29.832,2.659,30.268,3c0.436,0.339,0.514,0.968,0.175,1.403l-1.229,1.578C29.017,6.234,28.722,6.367,28.424,6.367z"/>
<path style="fill:#F0C419;" d="M21.008,40.047c-0.287,0-0.571-0.122-0.77-0.359c-0.354-0.425-0.296-1.056,0.128-1.409l1.536-1.28
	c0.426-0.353,1.055-0.296,1.409,0.128c0.354,0.425,0.296,1.056-0.128,1.409l-1.536,1.28C21.46,39.971,21.234,40.047,21.008,40.047z
	 M25.618,36.207c-0.287,0-0.571-0.122-0.77-0.359c-0.354-0.425-0.296-1.056,0.128-1.409l1.536-1.28
	c0.427-0.354,1.055-0.296,1.409,0.128c0.354,0.425,0.296,1.056-0.128,1.409l-1.536,1.28C26.07,36.13,25.843,36.207,25.618,36.207z
	 M30.227,32.365c-0.287,0-0.571-0.122-0.77-0.359c-0.354-0.425-0.296-1.056,0.128-1.409l1.536-1.28
	c0.426-0.353,1.056-0.296,1.409,0.128c0.354,0.425,0.296,1.056-0.128,1.409l-1.536,1.28C30.679,32.289,30.453,32.365,30.227,32.365z
	 M34.836,28.524c-0.287,0-0.571-0.122-0.77-0.359c-0.354-0.425-0.296-1.056,0.128-1.409l1.536-1.28
	c0.427-0.353,1.056-0.296,1.409,0.128c0.354,0.425,0.296,1.056-0.128,1.409l-1.536,1.28C35.289,28.448,35.062,28.524,34.836,28.524z
	 M39.446,24.683c-0.287,0-0.571-0.122-0.77-0.359c-0.354-0.425-0.296-1.056,0.128-1.409l1.536-1.28
	c0.426-0.354,1.056-0.296,1.409,0.128c0.354,0.425,0.296,1.056-0.128,1.409l-1.536,1.28C39.898,24.607,39.671,24.683,39.446,24.683z
	 M44.055,20.842c-0.287,0-0.571-0.122-0.769-0.359c-0.354-0.424-0.297-1.055,0.127-1.408l1.536-1.281
	c0.426-0.355,1.056-0.297,1.408,0.127c0.354,0.424,0.297,1.055-0.127,1.408l-1.536,1.281C44.507,20.766,44.281,20.842,44.055,20.842
	z M48.665,17c-0.287,0-0.571-0.122-0.77-0.359c-0.354-0.425-0.296-1.056,0.128-1.409l1.536-1.28
	c0.427-0.353,1.055-0.296,1.409,0.128c0.354,0.425,0.296,1.056-0.128,1.409l-1.536,1.28C49.117,16.924,48.89,17,48.665,17z"/>
<path style="fill:#F0C419;" d="M15.007,36.047c-0.24,0-0.481-0.086-0.673-0.26c-0.408-0.372-0.438-1.005-0.067-1.413l1.346-1.479
	c0.375-0.408,1.006-0.438,1.413-0.067c0.408,0.372,0.438,1.005,0.067,1.413l-1.346,1.479C15.549,35.937,15.279,36.047,15.007,36.047
	z M19.043,31.608c-0.24,0-0.481-0.086-0.673-0.26c-0.408-0.372-0.438-1.004-0.067-1.413l1.346-1.48
	c0.372-0.408,1.006-0.438,1.413-0.067c0.408,0.372,0.438,1.004,0.067,1.413l-1.346,1.48C19.586,31.498,19.315,31.608,19.043,31.608z
	 M23.08,27.168c-0.24,0-0.48-0.086-0.672-0.26c-0.409-0.371-0.439-1.004-0.068-1.412l1.345-1.48c0.372-0.41,1.005-0.438,1.412-0.068
	c0.409,0.371,0.439,1.004,0.068,1.412l-1.345,1.48C23.623,27.058,23.351,27.168,23.08,27.168z M27.116,22.728
	c-0.24,0-0.481-0.086-0.673-0.26c-0.408-0.372-0.438-1.004-0.067-1.413l1.345-1.479c0.372-0.408,1.007-0.438,1.413-0.067
	c0.408,0.372,0.438,1.004,0.067,1.413l-1.345,1.479C27.659,22.618,27.387,22.728,27.116,22.728z M31.152,18.289
	c-0.24,0-0.481-0.086-0.673-0.26c-0.408-0.372-0.438-1.004-0.067-1.413l1.345-1.479c0.372-0.408,1.006-0.437,1.413-0.067
	c0.408,0.372,0.438,1.004,0.067,1.413l-1.345,1.479C31.695,18.178,31.423,18.289,31.152,18.289z M35.188,13.849
	c-0.24,0-0.481-0.086-0.673-0.26c-0.408-0.372-0.438-1.004-0.067-1.413l1.345-1.479c0.373-0.407,1.006-0.438,1.413-0.067
	c0.408,0.372,0.438,1.004,0.067,1.413l-1.345,1.479C35.731,13.739,35.46,13.849,35.188,13.849z M39.223,9.41
	c-0.24,0-0.481-0.086-0.673-0.26c-0.408-0.372-0.438-1.004-0.067-1.413l1.346-1.48c0.372-0.409,1.006-0.438,1.413-0.067
	c0.408,0.372,0.438,1.004,0.067,1.413l-1.346,1.48C39.766,9.299,39.495,9.41,39.223,9.41z M43.259,4.97
	c-0.24,0-0.481-0.086-0.673-0.26c-0.408-0.372-0.438-1.004-0.067-1.413l1.346-1.48c0.372-0.408,1.006-0.437,1.413-0.067
	c0.408,0.372,0.438,1.004,0.067,1.413L44,4.643C43.802,4.86,43.531,4.97,43.259,4.97z"/>
<g>
</g>
<g>
</g>
<g>
</g>
<g>
</g>
<g>
</g>
<g>
</g>
<g>
</g>
<g>
</g>
<g>
</g>
<g>
</g>
<g>
</g>
<g>
</g>
<g>
</g>
<g>
</g>
<g>
</g>
</svg>
