<?xml version="1.0" encoding="iso-8859-1"?>
<!-- Generator: Adobe Illustrator 19.0.0, SVG Export Plug-In . SVG Version: 6.00 Build 0)  -->
<svg version="1.1" id="Capa_1" xmlns="http://www.w3.org/2000/svg" xmlns:xlink="http://www.w3.org/1999/xlink" x="0px" y="0px"
	 viewBox="0 0 58 58" style="enable-background:new 0 0 58 58;" xml:space="preserve">
<path style="fill:#E4ECF4;" d="M26.826,42.157c-0.003,0-0.007,0-0.01,0c-0.69-0.007-1.361-0.018-2.016-0.034
	c-0.553-0.015-0.988-0.474-0.975-1.025c0.015-0.552,0.436-0.964,1.025-0.975c0.645,0.017,1.306,0.027,1.984,0.034
	c0.553,0.006,0.996,0.458,0.99,1.01C27.82,41.715,27.374,42.157,26.826,42.157z M30.822,42.119c-0.528,0-0.97-0.414-0.998-0.948
	c-0.028-0.551,0.396-1.021,0.947-1.051c0.656-0.034,1.303-0.087,1.937-0.155c0.572-0.059,1.043,0.339,1.102,0.887
	c0.06,0.55-0.338,1.042-0.887,1.102c-0.671,0.072-1.354,0.129-2.048,0.165C30.857,42.119,30.84,42.119,30.822,42.119z
	 M20.833,41.928c-0.026,0-0.053-0.001-0.079-0.003c-0.701-0.055-1.379-0.122-2.034-0.203c-0.549-0.067-0.938-0.566-0.87-1.114
	c0.068-0.549,0.581-0.94,1.114-0.87c0.628,0.077,1.276,0.141,1.946,0.193c0.551,0.043,0.962,0.524,0.919,1.075
	C21.788,41.531,21.35,41.928,20.833,41.928z M36.759,41.299c-0.457,0-0.869-0.315-0.975-0.779c-0.121-0.539,0.217-1.074,0.755-1.196
	c0.643-0.146,1.271-0.306,1.884-0.48c0.533-0.146,1.084,0.156,1.236,0.688c0.151,0.531-0.156,1.085-0.688,1.236
	c-0.647,0.185-1.312,0.354-1.991,0.508C36.906,41.292,36.832,41.299,36.759,41.299z M14.917,40.988
	c-0.087,0-0.175-0.011-0.263-0.035c-0.696-0.188-1.369-0.407-1.998-0.65c-0.515-0.198-0.771-0.777-0.572-1.293
	c0.198-0.516,0.776-0.771,1.293-0.572c0.564,0.218,1.171,0.415,1.801,0.586c0.533,0.145,0.848,0.693,0.703,1.227
	C15.761,40.695,15.357,40.988,14.917,40.988z M42.478,39.5c-0.394,0-0.768-0.234-0.926-0.621c-0.209-0.512,0.036-1.096,0.547-1.305
	c0.615-0.251,1.208-0.514,1.776-0.786c0.5-0.238,1.096-0.028,1.334,0.471c0.238,0.498,0.027,1.096-0.471,1.334
	c-0.604,0.288-1.231,0.566-1.882,0.833C42.732,39.477,42.604,39.5,42.478,39.5z M9.516,38.465c-0.206,0-0.415-0.063-0.594-0.196
	c-0.566-0.418-1.112-0.887-1.624-1.391c-0.394-0.388-0.397-1.021-0.01-1.414s1.021-0.397,1.414-0.01
	c0.444,0.438,0.918,0.844,1.409,1.207c0.444,0.328,0.538,0.954,0.209,1.398C10.125,38.325,9.822,38.465,9.516,38.465z M47.81,36.759
	c-0.331,0-0.654-0.164-0.845-0.464c-0.297-0.466-0.159-1.084,0.308-1.38c0.558-0.355,1.093-0.722,1.59-1.091
	c0.442-0.329,1.069-0.236,1.399,0.208c0.328,0.443,0.235,1.07-0.208,1.399c-0.535,0.396-1.11,0.79-1.709,1.171
	C48.179,36.708,47.993,36.759,47.81,36.759z M52.42,32.948c-0.227,0-0.456-0.077-0.644-0.235c-0.422-0.355-0.477-0.986-0.12-1.409
	c0.201-0.239,0.368-0.464,0.497-0.668c0.293-0.468,0.91-0.611,1.378-0.315c0.468,0.293,0.609,0.91,0.315,1.378
	c-0.177,0.283-0.399,0.584-0.661,0.895C52.988,32.827,52.705,32.948,52.42,32.948z"/>
<path style="fill:#E4ECF4;" d="M29,29.167c-12.604,0-26-3.271-26-9.333S16.396,10.5,29,10.5s26,3.271,26,9.333
	S41.604,29.167,29,29.167z M29,12.5c-14.144,0-24,3.864-24,7.333s9.856,7.333,24,7.333s24-3.864,24-7.333S43.144,12.5,29,12.5z"/>
<path style="fill:#E4ECF4;" d="M29,21.5c-18.836,0-29-5.324-29-10.334C0,6.158,10.164,0.833,29,0.833s29,5.324,29,10.333
	C58,16.176,47.836,21.5,29,21.5z M29,2.833c-15.911,0-27,4.392-27,8.333S13.089,19.5,29,19.5s27-4.393,27-8.334
	S44.911,2.833,29,2.833z"/>
<path style="fill:#E4ECF4;" d="M29.603,36.161c-0.544,0-0.99-0.437-1-0.982c-0.01-0.552,0.43-1.008,0.982-1.018
	c0.644-0.012,1.292-0.042,1.942-0.089c0.563-0.047,1.03,0.374,1.07,0.924c0.04,0.551-0.373,1.03-0.924,1.07
	c-0.688,0.051-1.373,0.083-2.054,0.095C29.614,36.161,29.608,36.161,29.603,36.161z M25.604,36.075c-0.019,0-0.036,0-0.055-0.001
	c-0.688-0.037-1.364-0.086-2.029-0.145c-0.55-0.049-0.957-0.534-0.908-1.084c0.049-0.55,0.526-0.962,1.084-0.908
	c0.642,0.057,1.297,0.104,1.961,0.139c0.551,0.03,0.975,0.501,0.945,1.053C26.572,35.662,26.131,36.075,25.604,36.075z
	 M35.571,35.583c-0.479,0-0.901-0.345-0.984-0.832c-0.093-0.545,0.273-1.061,0.817-1.153c0.646-0.11,1.288-0.233,1.925-0.369
	c0.537-0.122,1.071,0.229,1.187,0.769c0.115,0.541-0.229,1.072-0.769,1.187c-0.664,0.142-1.334,0.271-2.007,0.385
	C35.684,35.578,35.627,35.583,35.571,35.583z M19.64,35.434c-0.054,0-0.109-0.004-0.165-0.014c-0.692-0.115-1.364-0.242-2.012-0.381
	c-0.54-0.115-0.884-0.647-0.768-1.188c0.115-0.539,0.643-0.888,1.188-0.768c0.618,0.133,1.259,0.254,1.92,0.363
	c0.545,0.09,0.913,0.605,0.822,1.15C20.544,35.087,20.12,35.434,19.64,35.434z M41.414,34.205c-0.43,0-0.826-0.278-0.957-0.71
	c-0.16-0.529,0.139-1.087,0.667-1.247c0.636-0.192,1.258-0.396,1.864-0.606c0.52-0.183,1.092,0.094,1.273,0.615
	s-0.094,1.092-0.615,1.273c-0.632,0.221-1.281,0.432-1.942,0.632C41.607,34.191,41.51,34.205,41.414,34.205z M13.817,34.002
	c-0.109,0-0.221-0.018-0.329-0.056c-0.699-0.244-1.354-0.506-1.946-0.779c-0.501-0.231-0.721-0.825-0.489-1.327
	s0.822-0.724,1.327-0.489c0.534,0.247,1.129,0.484,1.767,0.707c0.521,0.182,0.797,0.752,0.615,1.273
	C14.617,33.745,14.23,34.002,13.817,34.002z M47.033,32.096c-0.379,0-0.74-0.216-0.909-0.582c-0.231-0.501-0.012-1.096,0.49-1.326
	c0.61-0.281,1.192-0.57,1.739-0.863c0.484-0.26,1.093-0.077,1.354,0.41c0.261,0.486,0.077,1.093-0.41,1.354
	c-0.58,0.311-1.197,0.617-1.847,0.916C47.315,32.067,47.173,32.096,47.033,32.096z M8.715,30.983c-0.293,0-0.583-0.128-0.78-0.374
	C7.314,29.837,7,29.015,7,28.167c0-0.553,0.447-1,1-1s1,0.447,1,1c0,0.382,0.166,0.782,0.493,1.19
	c0.347,0.431,0.277,1.06-0.153,1.405C9.155,30.911,8.935,30.983,8.715,30.983z M52.16,29.005c-0.282,0-0.563-0.119-0.761-0.352
	c-0.358-0.42-0.309-1.051,0.112-1.409c0.517-0.441,0.91-0.862,1.169-1.254c0.305-0.46,0.926-0.587,1.387-0.281
	c0.46,0.306,0.586,0.926,0.281,1.387c-0.362,0.546-0.881,1.108-1.54,1.67C52.62,28.927,52.39,29.005,52.16,29.005z"/>
<path style="fill:#E4ECF4;" d="M26.646,47.792c-0.012,0-0.023,0-0.035-0.001c-0.693-0.023-1.37-0.059-2.029-0.102
	c-0.551-0.037-0.968-0.513-0.932-1.064c0.036-0.551,0.515-0.952,1.064-0.932c0.638,0.043,1.293,0.076,1.965,0.1
	c0.552,0.019,0.984,0.481,0.965,1.033C27.625,47.367,27.182,47.792,26.646,47.792z M30.643,47.778c-0.521,0-0.961-0.404-0.997-0.933
	c-0.037-0.551,0.38-1.028,0.931-1.065c0.627-0.042,1.272-0.109,1.918-0.2c0.557-0.081,1.053,0.305,1.13,0.851
	c0.077,0.548-0.304,1.053-0.851,1.13c-0.694,0.098-1.388,0.17-2.063,0.216C30.687,47.777,30.665,47.778,30.643,47.778z
	 M20.67,47.291c-0.046,0-0.092-0.003-0.139-0.01c-0.709-0.099-1.383-0.207-2.02-0.325c-0.543-0.101-0.902-0.622-0.802-1.165
	s0.622-0.907,1.165-0.802c0.609,0.112,1.254,0.217,1.932,0.312c0.548,0.076,0.929,0.581,0.853,1.128
	C21.59,46.929,21.161,47.291,20.67,47.291z M36.549,46.755c-0.439,0-0.842-0.292-0.964-0.736c-0.146-0.533,0.169-1.083,0.701-1.229
	c0.633-0.173,1.255-0.362,1.861-0.564c0.529-0.177,1.09,0.108,1.265,0.632c0.175,0.524-0.108,1.091-0.632,1.265
	c-0.642,0.214-1.299,0.415-1.967,0.598C36.726,46.744,36.637,46.755,36.549,46.755z M14.819,45.989
	c-0.109,0-0.221-0.018-0.329-0.056c-0.824-0.287-1.503-0.597-2.02-0.918c-0.469-0.292-0.611-0.909-0.319-1.378
	c0.292-0.468,0.907-0.611,1.378-0.319c0.385,0.24,0.945,0.491,1.619,0.727c0.521,0.182,0.797,0.752,0.615,1.273
	C15.62,45.731,15.232,45.989,14.819,45.989z M42.184,44.702c-0.379,0-0.741-0.216-0.909-0.582c-0.231-0.502-0.012-1.096,0.49-1.326
	c0.609-0.281,1.191-0.57,1.742-0.863c0.487-0.258,1.093-0.074,1.353,0.413s0.075,1.093-0.413,1.353
	c-0.582,0.311-1.199,0.617-1.846,0.914C42.466,44.672,42.323,44.702,42.184,44.702z M47.363,41.685c-0.302,0-0.6-0.136-0.797-0.395
	c-0.334-0.439-0.249-1.066,0.19-1.401c0.565-0.431,1.028-0.845,1.338-1.199c0.364-0.418,0.996-0.458,1.411-0.095
	c0.416,0.364,0.458,0.996,0.095,1.411c-0.403,0.461-0.952,0.957-1.633,1.475C47.787,41.619,47.574,41.685,47.363,41.685z"/>
<path style="fill:#E4ECF4;" d="M6,57.167c-0.553,0-1-0.447-1-1s0.447-1,1-1l0.62-0.001c0.002,0,0.003,0,0.005,0
	c0.55,0,0.997,0.444,1,0.995c0.003,0.553-0.443,1.002-0.995,1.005L6,57.167z M10.622,57.086c-0.534,0-0.979-0.423-0.998-0.963
	c-0.021-0.552,0.409-1.016,0.962-1.036c0.671-0.025,1.332-0.055,1.984-0.089c0.538-0.031,1.021,0.395,1.051,0.947
	c0.028,0.552-0.396,1.021-0.947,1.051c-0.662,0.034-1.333,0.063-2.014,0.089C10.647,57.086,10.635,57.086,10.622,57.086z
	 M16.612,56.719c-0.513,0-0.949-0.392-0.995-0.912c-0.049-0.55,0.357-1.035,0.908-1.084c0.667-0.059,1.324-0.123,1.971-0.192
	c0.57-0.059,1.043,0.339,1.102,0.887c0.06,0.55-0.338,1.043-0.887,1.102c-0.66,0.071-1.329,0.136-2.01,0.196
	C16.672,56.718,16.642,56.719,16.612,56.719z M22.569,56.018c-0.487,0-0.914-0.355-0.988-0.852
	c-0.082-0.546,0.295-1.056,0.841-1.138c0.664-0.1,1.314-0.203,1.953-0.313c0.544-0.093,1.062,0.271,1.155,0.815
	s-0.271,1.062-0.815,1.155c-0.652,0.112-1.318,0.22-1.996,0.321C22.668,56.014,22.618,56.018,22.569,56.018z M28.467,54.925
	c-0.457,0-0.869-0.315-0.975-0.779c-0.121-0.539,0.217-1.074,0.755-1.196c0.656-0.148,1.296-0.302,1.917-0.462
	c0.535-0.136,1.08,0.185,1.218,0.72s-0.185,1.08-0.72,1.218c-0.641,0.164-1.298,0.323-1.974,0.476
	C28.614,54.917,28.54,54.925,28.467,54.925z M34.253,53.337c-0.42,0-0.811-0.266-0.949-0.686c-0.174-0.524,0.11-1.091,0.635-1.264
	c0.64-0.212,1.256-0.429,1.848-0.651c0.518-0.195,1.094,0.066,1.288,0.583c0.195,0.518-0.066,1.094-0.583,1.288
	c-0.617,0.232-1.259,0.459-1.924,0.679C34.463,53.321,34.356,53.337,34.253,53.337z M39.805,51.077c-0.365,0-0.718-0.201-0.894-0.55
	c-0.249-0.493-0.051-1.094,0.442-1.343c0.597-0.302,1.164-0.613,1.688-0.928c0.475-0.284,1.088-0.13,1.372,0.343
	s0.131,1.088-0.343,1.372c-0.564,0.339-1.176,0.675-1.816,0.998C40.109,51.042,39.956,51.077,39.805,51.077z M44.739,47.71
	c-0.257,0-0.515-0.099-0.71-0.296c-0.389-0.392-0.387-1.024,0.006-1.414c0.459-0.456,0.835-0.915,1.118-1.365
	c0.293-0.467,0.911-0.61,1.378-0.315c0.468,0.293,0.609,0.91,0.315,1.378c-0.363,0.579-0.835,1.159-1.403,1.723
	C45.249,47.614,44.994,47.71,44.739,47.71z"/>
<circle style="fill:#E4ECF4;" cx="51" cy="55.167" r="1"/>
<circle style="fill:#E4ECF4;" cx="52" cy="46.167" r="1"/>
<circle style="fill:#E4ECF4;" cx="57" cy="48.167" r="1"/>
<circle style="fill:#E4ECF4;" cx="55" cy="39.167" r="1"/>
<g>
</g>
<g>
</g>
<g>
</g>
<g>
</g>
<g>
</g>
<g>
</g>
<g>
</g>
<g>
</g>
<g>
</g>
<g>
</g>
<g>
</g>
<g>
</g>
<g>
</g>
<g>
</g>
<g>
</g>
</svg>
