<?xml version="1.0" encoding="iso-8859-1"?>
<!-- Generator: Adobe Illustrator 19.0.0, SVG Export Plug-In . SVG Version: 6.00 Build 0)  -->
<svg version="1.1" id="Capa_1" xmlns="http://www.w3.org/2000/svg" xmlns:xlink="http://www.w3.org/1999/xlink" x="0px" y="0px"
	 viewBox="0 0 57.936 57.936" style="enable-background:new 0 0 57.936 57.936;" xml:space="preserve">
<g>
	<path style="fill:#D0E8F9;" d="M18.795,37.508c-0.482-0.268-1.092-0.093-1.359,0.39l-2.057,3.711
		c-0.268,0.483-0.093,1.092,0.391,1.359c0.153,0.085,0.319,0.125,0.483,0.125c0.352,0,0.693-0.186,0.876-0.515l2.057-3.711
		C19.454,38.384,19.279,37.775,18.795,37.508z"/>
	<path style="fill:#D0E8F9;" d="M22.237,45.884c-0.481-0.268-1.092-0.093-1.359,0.39l-2.057,3.71
		c-0.268,0.483-0.093,1.092,0.391,1.359c0.153,0.085,0.319,0.125,0.483,0.125c0.352,0,0.693-0.186,0.876-0.515l2.057-3.71
		C22.895,46.76,22.72,46.151,22.237,45.884z"/>
	<path style="fill:#D0E8F9;" d="M26.351,38.462c-0.481-0.268-1.092-0.094-1.359,0.39l-2.057,3.71
		c-0.268,0.483-0.093,1.092,0.391,1.359c0.153,0.085,0.319,0.125,0.483,0.125c0.352,0,0.693-0.186,0.876-0.515l2.057-3.71
		C27.009,39.339,26.834,38.73,26.351,38.462z"/>
	<path style="fill:#D0E8F9;" d="M8.214,42.013c0.153,0.085,0.319,0.125,0.483,0.125c0.352,0,0.693-0.186,0.876-0.515l2.057-3.71
		c0.268-0.483,0.093-1.092-0.391-1.359c-0.481-0.268-1.092-0.093-1.359,0.39l-2.057,3.71C7.556,41.137,7.731,41.746,8.214,42.013z"
		/>
	<path style="fill:#D0E8F9;" d="M12.881,33.585c0.153,0.085,0.319,0.125,0.483,0.125c0.352,0,0.693-0.186,0.876-0.515l2.057-3.711
		c0.268-0.483,0.093-1.092-0.391-1.359c-0.481-0.268-1.092-0.093-1.359,0.39l-2.057,3.711
		C12.223,32.709,12.398,33.318,12.881,33.585z"/>
	<path style="fill:#D0E8F9;" d="M7.125,43.975c-0.481-0.269-1.092-0.094-1.359,0.39l-2.057,3.71
		c-0.268,0.483-0.093,1.092,0.391,1.359c0.153,0.085,0.319,0.125,0.483,0.125c0.352,0,0.693-0.186,0.876-0.515l2.057-3.71
		C7.784,44.852,7.609,44.243,7.125,43.975z"/>
	<path style="fill:#D0E8F9;" d="M14.681,44.929c-0.482-0.268-1.091-0.093-1.359,0.39l-2.057,3.711
		c-0.268,0.483-0.093,1.092,0.391,1.359c0.153,0.085,0.319,0.125,0.483,0.125c0.352,0,0.693-0.186,0.876-0.515l2.057-3.711
		C15.339,45.805,15.164,45.197,14.681,44.929z"/>
	<path style="fill:#D0E8F9;" d="M10.568,52.351c-0.481-0.268-1.092-0.093-1.359,0.39l-2.057,3.711
		c-0.268,0.483-0.093,1.092,0.391,1.359c0.153,0.085,0.319,0.125,0.483,0.125c0.352,0,0.693-0.186,0.876-0.515l2.057-3.711
		C11.226,53.227,11.051,52.618,10.568,52.351z"/>
	<path style="fill:#D0E8F9;" d="M33.907,39.417c-0.482-0.269-1.091-0.093-1.359,0.39l-2.057,3.711
		c-0.268,0.483-0.093,1.092,0.391,1.359c0.153,0.085,0.319,0.125,0.483,0.125c0.352,0,0.693-0.186,0.876-0.515l2.057-3.711
		C34.565,40.292,34.39,39.684,33.907,39.417z"/>
	<path style="fill:#D0E8F9;" d="M5.055,33.125c-0.481-0.269-1.092-0.093-1.359,0.39l-2.057,3.711
		c-0.268,0.483-0.093,1.092,0.391,1.359c0.153,0.085,0.319,0.125,0.483,0.125c0.352,0,0.693-0.186,0.876-0.515l2.057-3.711
		C5.713,34.001,5.539,33.393,5.055,33.125z"/>
</g>
<g>
	<path style="fill:#E4ECF4;" d="M37.422,18c4.963,0,9-4.038,9-9s-4.037-9-9-9c-0.553,0-1,0.448-1,1s0.447,1,1,1c3.859,0,7,3.14,7,7
		s-3.141,7-7,7h-22c-4.963,0-9,4.038-9,9c0,0.552,0.447,1,1,1s1-0.448,1-1c0-3.86,3.141-7,7-7H37.422z"/>
	<path style="fill:#E4ECF4;" d="M44.422,28h-20c-0.553,0-1,0.448-1,1s0.447,1,1,1h20c3.859,0,7,3.14,7,7s-3.141,7-7,7
		c-0.553,0-1,0.448-1,1s0.447,1,1,1c4.963,0,9-4.038,9-9S49.385,28,44.422,28z"/>
	<path style="fill:#E4ECF4;" d="M33.422,10c0.553,0,1-0.448,1-1c0-1.654,1.346-3,3-3s3,1.346,3,3s-1.346,3-3,3c-0.553,0-1,0.448-1,1
		s0.447,1,1,1c2.757,0,5-2.243,5-5s-2.243-5-5-5s-5,2.243-5,5C32.422,9.552,32.87,10,33.422,10z"/>
	<path style="fill:#E4ECF4;" d="M49.422,37c0-2.757-2.243-5-5-5c-0.553,0-1,0.448-1,1s0.447,1,1,1c1.654,0,3,1.346,3,3s-1.346,3-3,3
		s-3-1.346-3-3c0-0.552-0.447-1-1-1s-1,0.448-1,1c0,2.757,2.243,5,5,5S49.422,39.757,49.422,37z"/>
	<path style="fill:#E4ECF4;" d="M38.422,32h-6c-0.553,0-1,0.448-1,1s0.447,1,1,1h6c0.553,0,1-0.448,1-1S38.975,32,38.422,32z"/>
	<path style="fill:#E4ECF4;" d="M27.422,14h6c0.553,0,1-0.448,1-1s-0.447-1-1-1h-6c-0.553,0-1,0.448-1,1S26.87,14,27.422,14z"/>
	<path style="fill:#E4ECF4;" d="M47.422,21c0-0.552-0.447-1-1-1h-31c-0.553,0-1,0.448-1,1s0.447,1,1,1h31
		C46.975,22,47.422,21.552,47.422,21z"/>
	<path style="fill:#E4ECF4;" d="M55.422,24h-36c-0.553,0-1,0.448-1,1s0.447,1,1,1h36c0.553,0,1-0.448,1-1S55.975,24,55.422,24z"/>
</g>
<g>
</g>
<g>
</g>
<g>
</g>
<g>
</g>
<g>
</g>
<g>
</g>
<g>
</g>
<g>
</g>
<g>
</g>
<g>
</g>
<g>
</g>
<g>
</g>
<g>
</g>
<g>
</g>
<g>
</g>
</svg>
