<?xml version="1.0" encoding="iso-8859-1"?>
<!-- Generator: Adobe Illustrator 19.0.0, SVG Export Plug-In . SVG Version: 6.00 Build 0)  -->
<svg version="1.1" id="Capa_1" xmlns="http://www.w3.org/2000/svg" xmlns:xlink="http://www.w3.org/1999/xlink" x="0px" y="0px"
	 viewBox="0 0 60 60" style="enable-background:new 0 0 60 60;" xml:space="preserve">
<ellipse transform="matrix(0.4848 0.8746 -0.8746 0.4848 32.6673 -12.7786)" style="fill:#BDD7E5;" cx="27.181" cy="21.34" rx="4" ry="12"/>
<path style="fill:#ABCADD;" d="M19.177,29.129c-2.102,0-2.99-0.809-3.367-1.487c-0.525-0.948-0.633-2.644,1.841-5.338
	c1.687-1.837,4.21-3.732,7.104-5.338c3.86-2.139,7.759-3.416,10.429-3.416c2.102,0,2.99,0.809,3.366,1.486
	c1.591,2.873-3.296,7.545-8.946,10.677C25.745,27.852,21.846,29.129,19.177,29.129z M35.184,15.55c-2.312,0-5.936,1.213-9.459,3.166
	c-2.711,1.503-5.056,3.258-6.601,4.94c-1.597,1.738-1.722,2.733-1.565,3.016c0.123,0.222,0.612,0.457,1.618,0.457
	c2.311,0,5.935-1.213,9.458-3.166c6.225-3.449,8.659-7.066,8.166-7.957C36.679,15.786,36.19,15.55,35.184,15.55z"/>
<path style="fill:#E4EFF7;" d="M51.241,50.307L37.676,15.522c1.071,1.932-2.76,6.103-8.556,9.316
	c-5.796,3.213-11.364,4.251-12.435,2.319l22.311,29.937c0.803,1.449,3.229,1.64,7.577-0.77
	C50.92,53.915,52.044,51.756,51.241,50.307z"/>
<path style="fill:#ABCADD;" d="M41.178,59.165L41.178,59.165c-1.375-0.001-2.444-0.54-3.021-1.521l-22.02-29.547
	c-0.128-0.14-0.237-0.292-0.328-0.455l1.677-1.082l0.17,0.228c0.131,0.11,0.525,0.342,1.521,0.342c2.311,0,5.935-1.213,9.458-3.166
	c5.666-3.141,8.422-6.574,8.214-7.811l-0.104-0.268l1.807-0.848c0.09,0.162,0.16,0.336,0.211,0.517L52.15,49.887
	c0.698,1.33,0.896,3.993-5.093,7.313C44.705,58.503,42.726,59.165,41.178,59.165z M19.4,29.126l20.47,27.483
	c0.076,0.138,0.309,0.555,1.308,0.556c0.001,0,0.001,0,0.001,0c0.828,0,2.353-0.298,4.91-1.716c3.625-2.009,4.76-3.787,4.277-4.658
	l-0.057-0.121L37.906,18.863c-1.592,2.413-4.955,4.995-8.302,6.85C25.85,27.793,22.06,29.059,19.4,29.126z"/>
<rect x="12.383" y="12.761" transform="matrix(0.9904 0.1386 -0.1386 0.9904 2.1486 -3.3437)" style="fill:#ABCADD;" width="25.416" height="2"/>
<rect x="6.734" y="18.579" transform="matrix(0.2658 0.964 -0.964 0.2658 29.5896 0.3037)" style="fill:#ABCADD;" width="15.723" height="2"/>
<path style="fill:#E64C3C;" d="M44.098,34.741l-0.81-2.077c-1.491,1.75-4.013,3.696-6.895,5.293
	c-2.884,1.599-5.873,2.706-8.148,3.044l1.332,1.788c2.333-0.505,5.074-1.58,7.785-3.082C40.071,38.205,42.433,36.452,44.098,34.741z
	"/>
<path style="fill:#E64C3C;" d="M46.383,40.603l-0.79-2.026c-1.531,1.574-3.783,3.237-6.292,4.628
	c-2.512,1.392-5.118,2.421-7.266,2.885l1.299,1.744c2.148-0.567,4.552-1.558,6.937-2.879C42.653,43.634,44.766,42.121,46.383,40.603
	z"/>
<path style="fill:#E64C3C;" d="M48.654,46.426l-0.776-1.99c-1.499,1.395-3.484,2.805-5.67,4.017c-2.196,1.218-4.443,2.14-6.425,2.67
	l1.28,1.718c1.941-0.594,4.057-1.498,6.115-2.639C45.23,49.065,47.124,47.754,48.654,46.426z"/>
<line style="fill:none;stroke:#7F8C8D;stroke-width:2;stroke-miterlimit:10;" x1="12.506" y1="49" x2="12.506" y2="9"/>
<circle style="fill:#BDC3C7;stroke:#95A5A5;stroke-width:2;stroke-miterlimit:10;" cx="12.506" cy="5" r="4"/>
<rect x="10.506" y="49" style="fill:#BDC3C7;stroke:#7F8C8D;stroke-width:2;stroke-miterlimit:10;" width="4" height="6"/>
<rect x="8.506" y="55" style="fill:#BDC3C7;stroke:#7F8C8D;stroke-width:2;stroke-miterlimit:10;" width="8" height="4"/>
<g>
</g>
<g>
</g>
<g>
</g>
<g>
</g>
<g>
</g>
<g>
</g>
<g>
</g>
<g>
</g>
<g>
</g>
<g>
</g>
<g>
</g>
<g>
</g>
<g>
</g>
<g>
</g>
<g>
</g>
</svg>
