<?xml version="1.0" encoding="iso-8859-1"?>
<!-- Generator: Adobe Illustrator 19.0.0, SVG Export Plug-In . SVG Version: 6.00 Build 0)  -->
<svg version="1.1" id="Capa_1" xmlns="http://www.w3.org/2000/svg" xmlns:xlink="http://www.w3.org/1999/xlink" x="0px" y="0px"
	 viewBox="0 0 58 58" style="enable-background:new 0 0 58 58;" xml:space="preserve">
<g>
	<path style="fill:#84B5CB;" d="M1.719,41.195C3.4,39.457,5.631,38.5,8,38.5s4.6,0.957,6.281,2.695
		c0.004,0.004,0.01,0.005,0.014,0.009c0.004,0.004,0.005,0.01,0.01,0.014c0.054,0.052,0.12,0.078,0.181,0.116
		c0.048,0.03,0.091,0.071,0.143,0.091c0.07,0.028,0.144,0.032,0.217,0.043C14.898,41.477,14.947,41.5,15,41.5
		c0.003,0,0.006-0.002,0.009-0.002c0.042,0,0.081-0.018,0.123-0.023c0.084-0.011,0.168-0.02,0.248-0.053
		c0.047-0.019,0.085-0.057,0.129-0.083c0.063-0.038,0.131-0.067,0.186-0.12c0.004-0.004,0.005-0.01,0.01-0.014
		c0.004-0.004,0.01-0.005,0.014-0.01C17.4,39.457,19.631,38.5,22,38.5s4.6,0.957,6.281,2.695c0.004,0.004,0.01,0.005,0.014,0.009
		c0.004,0.004,0.005,0.01,0.01,0.014c0.054,0.052,0.12,0.078,0.181,0.116c0.048,0.03,0.091,0.071,0.143,0.091
		c0.07,0.028,0.144,0.032,0.217,0.043C28.898,41.477,28.947,41.5,29,41.5c0.003,0,0.006-0.002,0.009-0.002
		c0.042,0,0.081-0.018,0.123-0.023c0.084-0.011,0.168-0.02,0.248-0.053c0.047-0.019,0.085-0.057,0.129-0.083
		c0.063-0.038,0.131-0.067,0.186-0.12c0.004-0.004,0.005-0.01,0.01-0.014c0.004-0.004,0.01-0.005,0.014-0.01
		C31.4,39.457,33.631,38.5,36,38.5s4.6,0.957,6.281,2.695c0.004,0.004,0.01,0.005,0.014,0.009c0.004,0.004,0.005,0.01,0.01,0.014
		c0.054,0.052,0.12,0.078,0.181,0.116c0.048,0.03,0.091,0.071,0.143,0.091c0.07,0.028,0.144,0.032,0.217,0.043
		C42.898,41.477,42.947,41.5,43,41.5c0.003,0,0.006-0.002,0.009-0.002c0.042,0,0.081-0.018,0.123-0.023
		c0.084-0.011,0.168-0.02,0.248-0.053c0.047-0.019,0.085-0.057,0.129-0.083c0.063-0.038,0.131-0.067,0.186-0.12
		c0.004-0.004,0.005-0.01,0.01-0.014c0.004-0.004,0.01-0.005,0.014-0.01C45.4,39.457,47.631,38.5,50,38.5s4.6,0.957,6.281,2.695
		C56.477,41.398,56.739,41.5,57,41.5c0.25,0,0.501-0.093,0.695-0.281c0.397-0.384,0.407-1.017,0.023-1.414
		C55.657,37.674,52.916,36.5,50,36.5c-2.59,0-5.04,0.93-7,2.631c-1.96-1.7-4.41-2.631-7-2.631s-5.04,0.93-7,2.631
		c-1.96-1.7-4.41-2.631-7-2.631s-5.04,0.93-7,2.631c-1.96-1.7-4.41-2.631-7-2.631c-2.916,0-5.657,1.174-7.719,3.305
		c-0.384,0.397-0.374,1.03,0.023,1.414C0.701,41.602,1.334,41.591,1.719,41.195z"/>
	<path style="fill:#84B5CB;" d="M50,43.5c-2.59,0-5.04,0.93-7,2.631c-1.96-1.7-4.41-2.631-7-2.631s-5.04,0.93-7,2.631
		c-1.96-1.7-4.41-2.631-7-2.631s-5.04,0.93-7,2.631c-1.96-1.7-4.41-2.631-7-2.631c-2.916,0-5.657,1.174-7.719,3.305
		c-0.384,0.397-0.374,1.03,0.023,1.414c0.396,0.383,1.029,0.373,1.414-0.023C3.4,46.457,5.631,45.5,8,45.5s4.6,0.957,6.281,2.695
		c0.004,0.004,0.01,0.005,0.014,0.009c0.004,0.004,0.005,0.01,0.01,0.014c0.053,0.051,0.119,0.078,0.179,0.115
		c0.049,0.03,0.092,0.072,0.145,0.093c0.069,0.028,0.142,0.031,0.214,0.043C14.896,48.477,14.946,48.5,15,48.5
		c0.003,0,0.006-0.002,0.009-0.002c0.043,0,0.083-0.018,0.126-0.024c0.083-0.011,0.166-0.019,0.245-0.052
		c0.048-0.02,0.087-0.058,0.132-0.085c0.062-0.038,0.129-0.066,0.183-0.118c0.004-0.004,0.005-0.01,0.01-0.014
		c0.004-0.004,0.01-0.005,0.014-0.01C17.4,46.457,19.631,45.5,22,45.5s4.6,0.957,6.281,2.695c0.004,0.004,0.01,0.005,0.014,0.009
		c0.004,0.004,0.005,0.01,0.01,0.014c0.053,0.051,0.119,0.078,0.179,0.115c0.049,0.03,0.092,0.072,0.145,0.093
		c0.069,0.028,0.142,0.031,0.214,0.043C28.896,48.477,28.946,48.5,29,48.5c0.003,0,0.006-0.002,0.009-0.002
		c0.043,0,0.083-0.018,0.126-0.024c0.083-0.011,0.166-0.019,0.245-0.052c0.048-0.02,0.087-0.058,0.132-0.085
		c0.062-0.038,0.129-0.066,0.183-0.118c0.004-0.004,0.005-0.01,0.01-0.014c0.004-0.004,0.01-0.005,0.014-0.01
		C31.4,46.457,33.631,45.5,36,45.5s4.6,0.957,6.281,2.695c0.004,0.004,0.01,0.005,0.014,0.009c0.004,0.004,0.005,0.01,0.01,0.014
		c0.053,0.051,0.119,0.078,0.179,0.115c0.049,0.03,0.092,0.072,0.145,0.093c0.069,0.028,0.142,0.031,0.214,0.043
		C42.896,48.477,42.946,48.5,43,48.5c0.003,0,0.006-0.002,0.009-0.002c0.043,0,0.083-0.018,0.126-0.024
		c0.083-0.011,0.166-0.019,0.245-0.052c0.048-0.02,0.087-0.058,0.132-0.085c0.062-0.038,0.129-0.066,0.183-0.118
		c0.004-0.004,0.005-0.01,0.01-0.014c0.004-0.004,0.01-0.005,0.014-0.01C45.4,46.457,47.631,45.5,50,45.5s4.6,0.957,6.281,2.695
		C56.477,48.398,56.739,48.5,57,48.5c0.25,0,0.501-0.093,0.695-0.281c0.397-0.384,0.407-1.017,0.023-1.414
		C55.657,44.674,52.916,43.5,50,43.5z"/>
	<path style="fill:#84B5CB;" d="M50,50.5c-2.59,0-5.04,0.93-7,2.631c-1.96-1.7-4.41-2.631-7-2.631s-5.04,0.93-7,2.631
		c-1.96-1.7-4.41-2.631-7-2.631s-5.04,0.93-7,2.631c-1.96-1.7-4.41-2.631-7-2.631c-2.916,0-5.657,1.174-7.719,3.305
		c-0.384,0.397-0.374,1.03,0.023,1.414c0.396,0.384,1.029,0.374,1.414-0.023C3.4,53.457,5.631,52.5,8,52.5s4.6,0.957,6.281,2.695
		c0.004,0.004,0.01,0.005,0.014,0.009c0.004,0.004,0.005,0.01,0.01,0.014c0.054,0.052,0.121,0.079,0.183,0.117
		c0.048,0.029,0.09,0.07,0.141,0.09c0.074,0.03,0.152,0.034,0.229,0.046C14.906,55.479,14.951,55.5,15,55.5
		c0.003,0,0.005-0.002,0.008-0.002c0.048,0,0.094-0.02,0.142-0.027c0.078-0.012,0.156-0.018,0.229-0.049
		c0.049-0.02,0.09-0.06,0.136-0.088c0.061-0.037,0.126-0.064,0.179-0.116c0.004-0.004,0.005-0.01,0.01-0.014
		c0.004-0.004,0.01-0.005,0.014-0.01C17.4,53.457,19.631,52.5,22,52.5s4.6,0.957,6.281,2.695c0.004,0.004,0.01,0.005,0.014,0.009
		c0.004,0.004,0.005,0.01,0.01,0.014c0.054,0.052,0.121,0.079,0.183,0.117c0.048,0.029,0.09,0.07,0.141,0.09
		c0.074,0.03,0.152,0.034,0.229,0.046C28.906,55.479,28.951,55.5,29,55.5c0.003,0,0.005-0.002,0.008-0.002
		c0.048,0,0.094-0.02,0.142-0.027c0.078-0.012,0.156-0.018,0.229-0.049c0.049-0.02,0.09-0.06,0.136-0.088
		c0.061-0.037,0.126-0.064,0.179-0.116c0.004-0.004,0.005-0.01,0.01-0.014c0.004-0.004,0.01-0.005,0.014-0.01
		C31.4,53.457,33.631,52.5,36,52.5s4.6,0.957,6.281,2.695c0.004,0.004,0.01,0.005,0.014,0.009c0.004,0.004,0.005,0.01,0.01,0.014
		c0.054,0.052,0.121,0.079,0.183,0.117c0.048,0.029,0.09,0.07,0.141,0.09c0.074,0.03,0.152,0.034,0.229,0.046
		C42.906,55.479,42.951,55.5,43,55.5c0.003,0,0.005-0.002,0.008-0.002c0.048,0,0.094-0.02,0.142-0.027
		c0.078-0.012,0.156-0.018,0.229-0.049c0.049-0.02,0.09-0.06,0.136-0.088c0.061-0.037,0.126-0.064,0.179-0.116
		c0.004-0.004,0.005-0.01,0.01-0.014c0.004-0.004,0.01-0.005,0.014-0.01C45.4,53.457,47.631,52.5,50,52.5s4.6,0.957,6.281,2.695
		C56.477,55.398,56.739,55.5,57,55.5c0.25,0,0.501-0.093,0.695-0.281c0.397-0.384,0.407-1.017,0.023-1.414
		C55.657,51.674,52.916,50.5,50,50.5z"/>
</g>
<path style="fill:#E4ECF4;" d="M36,28.5c-0.552,0-1-0.448-1-1s0.448-1,1-1c3.86,0,7-3.14,7-7s-3.14-7-7-7H16c-0.552,0-1-0.448-1-1
	s0.448-1,1-1h20c4.962,0,9,4.038,9,9S40.962,28.5,36,28.5z"/>
<path style="fill:#E4ECF4;" d="M36,24.5c-2.757,0-5-2.243-5-5c0-0.552,0.448-1,1-1c0.552,0,1,0.448,1,1c0,1.654,1.346,3,3,3
	s3-1.346,3-3s-1.346-3-3-3c-0.552,0-1-0.448-1-1c0-0.552,0.448-1,1-1c2.757,0,5,2.243,5,5S38.757,24.5,36,24.5z"/>
<path style="fill:#E4ECF4;" d="M30,16.5h-6c-0.552,0-1-0.448-1-1c0-0.552,0.448-1,1-1h6c0.552,0,1,0.448,1,1
	C31,16.052,30.552,16.5,30,16.5z"/>
<path style="fill:#E4ECF4;" d="M38,4.5H7c-0.552,0-1-0.448-1-1s0.448-1,1-1h31c0.552,0,1,0.448,1,1S38.552,4.5,38,4.5z"/>
<path style="fill:#E4ECF4;" d="M47,8.5H11c-0.552,0-1-0.448-1-1s0.448-1,1-1h36c0.552,0,1,0.448,1,1S47.552,8.5,47,8.5z"/>
<g>
</g>
<g>
</g>
<g>
</g>
<g>
</g>
<g>
</g>
<g>
</g>
<g>
</g>
<g>
</g>
<g>
</g>
<g>
</g>
<g>
</g>
<g>
</g>
<g>
</g>
<g>
</g>
<g>
</g>
</svg>
