<?xml version="1.0" encoding="iso-8859-1"?>
<!-- Generator: Adobe Illustrator 19.0.0, SVG Export Plug-In . SVG Version: 6.00 Build 0)  -->
<svg version="1.1" id="Capa_1" xmlns="http://www.w3.org/2000/svg" xmlns:xlink="http://www.w3.org/1999/xlink" x="0px" y="0px"
	 viewBox="0 0 56 56" style="enable-background:new 0 0 56 56;" xml:space="preserve">
<g>
	<path style="fill:#95A5A5;" d="M25,28c0-10.96,6.302-20.443,15.476-25.041C36.717,1.08,32.489,0,28,0C12.536,0,0,12.536,0,28
		c0,15.464,12.536,28,28,28c4.489,0,8.717-1.08,12.476-2.959C31.302,48.443,25,38.96,25,28z"/>
</g>
<path style="fill:#BDC3C7;" d="M40.5,2.946C31.313,7.539,25,17.03,25,28c0,10.97,6.313,20.461,15.5,25.054
	C49.688,48.461,56,38.97,56,28C56,17.03,49.688,7.539,40.5,2.946z"/>
<circle style="fill:#BDC3C7;" cx="27" cy="9" r="1"/>
<circle style="fill:#BDC3C7;" cx="27" cy="1" r="1"/>
<circle style="fill:#BDC3C7;" cx="31" cy="5" r="1"/>
<circle style="fill:#BDC3C7;" cx="27" cy="41" r="1"/>
<circle style="fill:#BDC3C7;" cx="27" cy="49" r="1"/>
<circle style="fill:#BDC3C7;" cx="31" cy="53" r="1"/>
<circle style="fill:#BDC3C7;" cx="19" cy="9" r="1"/>
<circle style="fill:#BDC3C7;" cx="11" cy="9" r="1"/>
<circle style="fill:#BDC3C7;" cx="23" cy="13" r="1"/>
<circle style="fill:#BDC3C7;" cx="15" cy="13" r="1"/>
<circle style="fill:#BDC3C7;" cx="23" cy="5" r="1"/>
<circle style="fill:#BDC3C7;" cx="15" cy="5" r="1"/>
<circle style="fill:#BDC3C7;" cx="19" cy="17" r="1"/>
<circle style="fill:#BDC3C7;" cx="11" cy="17" r="1"/>
<circle style="fill:#BDC3C7;" cx="23" cy="21" r="1"/>
<circle style="fill:#BDC3C7;" cx="15" cy="21" r="1"/>
<circle style="fill:#BDC3C7;" cx="19" cy="25" r="1"/>
<circle style="fill:#BDC3C7;" cx="11" cy="25" r="1"/>
<circle style="fill:#BDC3C7;" cx="23" cy="29" r="1"/>
<circle style="fill:#BDC3C7;" cx="15" cy="29" r="1"/>
<circle style="fill:#BDC3C7;" cx="19" cy="33" r="1"/>
<circle style="fill:#BDC3C7;" cx="11" cy="33" r="1"/>
<circle style="fill:#BDC3C7;" cx="23" cy="37" r="1"/>
<circle style="fill:#BDC3C7;" cx="15" cy="37" r="1"/>
<circle style="fill:#BDC3C7;" cx="19" cy="41" r="1"/>
<circle style="fill:#BDC3C7;" cx="11" cy="41" r="1"/>
<circle style="fill:#BDC3C7;" cx="23" cy="45" r="1"/>
<circle style="fill:#BDC3C7;" cx="15" cy="45" r="1"/>
<circle style="fill:#BDC3C7;" cx="19" cy="49" r="1"/>
<circle style="fill:#BDC3C7;" cx="11" cy="49" r="1"/>
<circle style="fill:#BDC3C7;" cx="23" cy="53" r="1"/>
<circle style="fill:#BDC3C7;" cx="7" cy="13" r="1"/>
<circle style="fill:#BDC3C7;" cx="7" cy="21" r="1"/>
<circle style="fill:#BDC3C7;" cx="3" cy="25" r="1"/>
<circle style="fill:#BDC3C7;" cx="7" cy="29" r="1"/>
<circle style="fill:#BDC3C7;" cx="3" cy="33" r="1"/>
<circle style="fill:#BDC3C7;" cx="7" cy="37" r="1"/>
<circle style="fill:#BDC3C7;" cx="7" cy="45" r="1"/>
<g>
</g>
<g>
</g>
<g>
</g>
<g>
</g>
<g>
</g>
<g>
</g>
<g>
</g>
<g>
</g>
<g>
</g>
<g>
</g>
<g>
</g>
<g>
</g>
<g>
</g>
<g>
</g>
<g>
</g>
</svg>
