<?xml version="1.0" encoding="iso-8859-1"?>
<!-- Generator: Adobe Illustrator 19.0.0, SVG Export Plug-In . SVG Version: 6.00 Build 0)  -->
<svg version="1.1" id="Capa_1" xmlns="http://www.w3.org/2000/svg" xmlns:xlink="http://www.w3.org/1999/xlink" x="0px" y="0px"
	 viewBox="0 0 56 56" style="enable-background:new 0 0 56 56;" xml:space="preserve">
<circle style="fill:#95A5A5;" cx="28" cy="28" r="28"/>
<circle style="fill:#BDC3C7;" cx="14" cy="9" r="1"/>
<circle style="fill:#BDC3C7;" cx="10" cy="13" r="1"/>
<circle style="fill:#BDC3C7;" cx="6" cy="17" r="1"/>
<circle style="fill:#BDC3C7;" cx="14" cy="17" r="1"/>
<circle style="fill:#BDC3C7;" cx="2" cy="21" r="1"/>
<circle style="fill:#BDC3C7;" cx="10" cy="21" r="1"/>
<circle style="fill:#BDC3C7;" cx="6" cy="25" r="1"/>
<circle style="fill:#BDC3C7;" cx="14" cy="25" r="1"/>
<circle style="fill:#BDC3C7;" cx="2" cy="29" r="1"/>
<circle style="fill:#BDC3C7;" cx="10" cy="29" r="1"/>
<circle style="fill:#BDC3C7;" cx="6" cy="33" r="1"/>
<circle style="fill:#BDC3C7;" cx="14" cy="33" r="1"/>
<circle style="fill:#BDC3C7;" cx="10" cy="37" r="1"/>
<circle style="fill:#BDC3C7;" cx="6" cy="41" r="1"/>
<circle style="fill:#BDC3C7;" cx="14" cy="41" r="1"/>
<circle style="fill:#BDC3C7;" cx="10" cy="45" r="1"/>
<circle style="fill:#BDC3C7;" cx="14" cy="49" r="1"/>
<circle style="fill:#BDC3C7;" cx="22" cy="9" r="1"/>
<circle style="fill:#BDC3C7;" cx="30" cy="9" r="1"/>
<circle style="fill:#BDC3C7;" cx="18" cy="13" r="1"/>
<circle style="fill:#BDC3C7;" cx="26" cy="13" r="1"/>
<circle style="fill:#BDC3C7;" cx="30" cy="1" r="1"/>
<circle style="fill:#BDC3C7;" cx="18" cy="5" r="1"/>
<circle style="fill:#BDC3C7;" cx="26" cy="5" r="1"/>
<circle style="fill:#BDC3C7;" cx="22" cy="17" r="1"/>
<circle style="fill:#BDC3C7;" cx="30" cy="17" r="1"/>
<circle style="fill:#BDC3C7;" cx="18" cy="21" r="1"/>
<circle style="fill:#BDC3C7;" cx="26" cy="21" r="1"/>
<circle style="fill:#BDC3C7;" cx="22" cy="25" r="1"/>
<circle style="fill:#BDC3C7;" cx="30" cy="25" r="1"/>
<circle style="fill:#BDC3C7;" cx="18" cy="29" r="1"/>
<circle style="fill:#BDC3C7;" cx="26" cy="29" r="1"/>
<circle style="fill:#BDC3C7;" cx="22" cy="33" r="1"/>
<circle style="fill:#BDC3C7;" cx="30" cy="33" r="1"/>
<circle style="fill:#BDC3C7;" cx="18" cy="37" r="1"/>
<circle style="fill:#BDC3C7;" cx="26" cy="37" r="1"/>
<circle style="fill:#BDC3C7;" cx="22" cy="41" r="1"/>
<circle style="fill:#BDC3C7;" cx="30" cy="41" r="1"/>
<circle style="fill:#BDC3C7;" cx="18" cy="45" r="1"/>
<circle style="fill:#BDC3C7;" cx="26" cy="45" r="1"/>
<circle style="fill:#BDC3C7;" cx="22" cy="49" r="1"/>
<circle style="fill:#BDC3C7;" cx="30" cy="49" r="1"/>
<circle style="fill:#BDC3C7;" cx="18" cy="53" r="1"/>
<circle style="fill:#BDC3C7;" cx="26" cy="53" r="1"/>
<circle style="fill:#BDC3C7;" cx="38" cy="9" r="1"/>
<circle style="fill:#BDC3C7;" cx="34" cy="13" r="1"/>
<circle style="fill:#BDC3C7;" cx="34" cy="5" r="1"/>
<circle style="fill:#BDC3C7;" cx="38" cy="17" r="1"/>
<circle style="fill:#BDC3C7;" cx="34" cy="21" r="1"/>
<circle style="fill:#BDC3C7;" cx="38" cy="25" r="1"/>
<circle style="fill:#BDC3C7;" cx="34" cy="29" r="1"/>
<circle style="fill:#BDC3C7;" cx="38" cy="33" r="1"/>
<circle style="fill:#BDC3C7;" cx="34" cy="37" r="1"/>
<circle style="fill:#BDC3C7;" cx="38" cy="41" r="1"/>
<circle style="fill:#BDC3C7;" cx="34" cy="45" r="1"/>
<circle style="fill:#BDC3C7;" cx="38" cy="49" r="1"/>
<circle style="fill:#BDC3C7;" cx="34" cy="53" r="1"/>
<circle style="fill:#BDC3C7;" cx="46" cy="9" r="1"/>
<circle style="fill:#BDC3C7;" cx="42" cy="13" r="1"/>
<circle style="fill:#BDC3C7;" cx="42" cy="5" r="1"/>
<circle style="fill:#BDC3C7;" cx="46" cy="17" r="1"/>
<circle style="fill:#BDC3C7;" cx="42" cy="21" r="1"/>
<circle style="fill:#BDC3C7;" cx="46" cy="25" r="1"/>
<circle style="fill:#BDC3C7;" cx="42" cy="29" r="1"/>
<circle style="fill:#BDC3C7;" cx="46" cy="33" r="1"/>
<circle style="fill:#BDC3C7;" cx="42" cy="37" r="1"/>
<circle style="fill:#BDC3C7;" cx="46" cy="41" r="1"/>
<circle style="fill:#BDC3C7;" cx="42" cy="45" r="1"/>
<circle style="fill:#BDC3C7;" cx="50" cy="13" r="1"/>
<circle style="fill:#BDC3C7;" cx="50" cy="21" r="1"/>
<circle style="fill:#BDC3C7;" cx="54" cy="25" r="1"/>
<circle style="fill:#BDC3C7;" cx="50" cy="29" r="1"/>
<circle style="fill:#BDC3C7;" cx="54" cy="33" r="1"/>
<circle style="fill:#BDC3C7;" cx="50" cy="37" r="1"/>
<g>
</g>
<g>
</g>
<g>
</g>
<g>
</g>
<g>
</g>
<g>
</g>
<g>
</g>
<g>
</g>
<g>
</g>
<g>
</g>
<g>
</g>
<g>
</g>
<g>
</g>
<g>
</g>
<g>
</g>
</svg>
