<?xml version="1.0" encoding="iso-8859-1"?>
<!-- Generator: Adobe Illustrator 19.0.0, SVG Export Plug-In . SVG Version: 6.00 Build 0)  -->
<svg version="1.1" id="Capa_1" xmlns="http://www.w3.org/2000/svg" xmlns:xlink="http://www.w3.org/1999/xlink" x="0px" y="0px"
	 viewBox="0 0 56 56" style="enable-background:new 0 0 56 56;" xml:space="preserve">
<path style="fill:#95A5A5;" d="M0,28c0,15.464,12.536,28,28,28V0C12.536,0,0,12.536,0,28z"/>
<path style="fill:#BDC3C7;" d="M56,28c0,15.464-12.536,28-28,28V0C43.464,0,56,12.536,56,28z"/>
<circle style="fill:#BDC3C7;" cx="23" cy="9" r="1"/>
<circle style="fill:#BDC3C7;" cx="15" cy="9" r="1"/>
<circle style="fill:#BDC3C7;" cx="27" cy="13" r="1"/>
<circle style="fill:#BDC3C7;" cx="19" cy="13" r="1"/>
<circle style="fill:#BDC3C7;" cx="27" cy="5" r="1"/>
<circle style="fill:#BDC3C7;" cx="19" cy="5" r="1"/>
<circle style="fill:#BDC3C7;" cx="23" cy="17" r="1"/>
<circle style="fill:#BDC3C7;" cx="15" cy="17" r="1"/>
<circle style="fill:#BDC3C7;" cx="27" cy="21" r="1"/>
<circle style="fill:#BDC3C7;" cx="19" cy="21" r="1"/>
<circle style="fill:#BDC3C7;" cx="23" cy="25" r="1"/>
<circle style="fill:#BDC3C7;" cx="15" cy="25" r="1"/>
<circle style="fill:#BDC3C7;" cx="27" cy="29" r="1"/>
<circle style="fill:#BDC3C7;" cx="19" cy="29" r="1"/>
<circle style="fill:#BDC3C7;" cx="23" cy="33" r="1"/>
<circle style="fill:#BDC3C7;" cx="15" cy="33" r="1"/>
<circle style="fill:#BDC3C7;" cx="27" cy="37" r="1"/>
<circle style="fill:#BDC3C7;" cx="19" cy="37" r="1"/>
<circle style="fill:#BDC3C7;" cx="23" cy="41" r="1"/>
<circle style="fill:#BDC3C7;" cx="15" cy="41" r="1"/>
<circle style="fill:#BDC3C7;" cx="27" cy="45" r="1"/>
<circle style="fill:#BDC3C7;" cx="19" cy="45" r="1"/>
<circle style="fill:#BDC3C7;" cx="23" cy="49" r="1"/>
<circle style="fill:#BDC3C7;" cx="15" cy="49" r="1"/>
<circle style="fill:#BDC3C7;" cx="27" cy="53" r="1"/>
<circle style="fill:#BDC3C7;" cx="19" cy="53" r="1"/>
<circle style="fill:#BDC3C7;" cx="11" cy="13" r="1"/>
<circle style="fill:#BDC3C7;" cx="7" cy="17" r="1"/>
<circle style="fill:#BDC3C7;" cx="11" cy="21" r="1"/>
<circle style="fill:#BDC3C7;" cx="3" cy="21" r="1"/>
<circle style="fill:#BDC3C7;" cx="7" cy="25" r="1"/>
<circle style="fill:#BDC3C7;" cx="11" cy="29" r="1"/>
<circle style="fill:#BDC3C7;" cx="3" cy="29" r="1"/>
<circle style="fill:#BDC3C7;" cx="7" cy="33" r="1"/>
<circle style="fill:#BDC3C7;" cx="11" cy="37" r="1"/>
<circle style="fill:#BDC3C7;" cx="3" cy="37" r="1"/>
<circle style="fill:#BDC3C7;" cx="7" cy="41" r="1"/>
<circle style="fill:#BDC3C7;" cx="11" cy="45" r="1"/>
<g>
</g>
<g>
</g>
<g>
</g>
<g>
</g>
<g>
</g>
<g>
</g>
<g>
</g>
<g>
</g>
<g>
</g>
<g>
</g>
<g>
</g>
<g>
</g>
<g>
</g>
<g>
</g>
<g>
</g>
</svg>
