<?xml version="1.0" encoding="iso-8859-1"?>
<!-- Generator: Adobe Illustrator 19.0.0, SVG Export Plug-In . SVG Version: 6.00 Build 0)  -->
<svg version="1.1" id="Capa_1" xmlns="http://www.w3.org/2000/svg" xmlns:xlink="http://www.w3.org/1999/xlink" x="0px" y="0px"
	 viewBox="0 0 60 60" style="enable-background:new 0 0 60 60;" xml:space="preserve">
<path style="fill:#FBD490;" d="M53.56,40c1.378-3.152,2.154-6.626,2.154-10.286C55.714,15.513,44.202,4,30,4
	S4.286,15.513,4.286,29.714c0,3.66,0.776,7.134,2.154,10.286H53.56z"/>
<path style="fill:#EFDCBF;" d="M59,41H1c-0.553,0-1-0.447-1-1s0.447-1,1-1h58c0.553,0,1,0.447,1,1S59.553,41,59,41z"/>
<path style="fill:#EFDCBF;" d="M54,46H6c-0.553,0-1-0.447-1-1s0.447-1,1-1h48c0.553,0,1,0.447,1,1S54.553,46,54,46z"/>
<path style="fill:#EFDCBF;" d="M49,51H11c-0.553,0-1-0.447-1-1s0.447-1,1-1h38c0.553,0,1,0.447,1,1S49.553,51,49,51z"/>
<path style="fill:#EFDCBF;" d="M45,56H15c-0.553,0-1-0.447-1-1s0.447-1,1-1h30c0.553,0,1,0.447,1,1S45.553,56,45,56z"/>
<polygon style="fill:#546A79;" points="37.707,26.293 30,18.586 22.293,26.293 23.707,27.707 29,22.414 29,34 31,34 31,22.414 
	36.293,27.707 "/>
<g>
	<circle style="fill:#F29C1F;" cx="22" cy="16" r="1"/>
	<circle style="fill:#F29C1F;" cx="44" cy="19" r="1"/>
	<circle style="fill:#F29C1F;" cx="40" cy="35" r="1"/>
	<circle style="fill:#F29C1F;" cx="34" cy="8" r="1"/>
	<path style="fill:#F29C1F;" d="M14,27c-2.206,0-4,1.794-4,4c0,0.553,0.447,1,1,1s1-0.447,1-1c0-1.103,0.897-2,2-2s2,0.897,2,2
		s-0.897,2-2,2c-0.553,0-1,0.447-1,1s0.447,1,1,1c2.206,0,4-1.794,4-4S16.206,27,14,27z"/>
	<path style="fill:#F29C1F;" d="M55.683,36.537c-0.134-0.536-0.683-0.859-1.213-0.727C53.968,35.937,53.474,36,53,36
		c-3.309,0-6-2.691-6-6c0-0.553-0.447-1-1-1s-1,0.447-1,1c0,4.411,3.589,8,8,8c0.638,0,1.296-0.084,1.956-0.25
		C55.492,37.616,55.817,37.072,55.683,36.537z"/>
</g>
<path style="fill:#F29C1F;" d="M6.927,18.36C7.695,18.767,8.57,19,9.5,19c3.038,0,5.5-2.462,5.5-5.5c0-1.388-0.518-2.652-1.366-3.62
	C10.84,12.188,8.546,15.077,6.927,18.36z"/>
<g>
</g>
<g>
</g>
<g>
</g>
<g>
</g>
<g>
</g>
<g>
</g>
<g>
</g>
<g>
</g>
<g>
</g>
<g>
</g>
<g>
</g>
<g>
</g>
<g>
</g>
<g>
</g>
<g>
</g>
</svg>
