<?xml version="1.0" encoding="iso-8859-1"?>
<!-- Generator: Adobe Illustrator 19.0.0, SVG Export Plug-In . SVG Version: 6.00 Build 0)  -->
<svg version="1.1" id="Capa_1" xmlns="http://www.w3.org/2000/svg" xmlns:xlink="http://www.w3.org/1999/xlink" x="0px" y="0px"
	 viewBox="0 0 56 56" style="enable-background:new 0 0 56 56;" xml:space="preserve">
<g>
	<path style="fill:#95A5A5;" d="M28,0c-1.873,0-3.697,0.199-5.466,0.552C35.346,3.121,45,14.431,45,28s-9.654,24.879-22.466,27.448
		C24.303,55.802,26.127,56,28,56c15.464,0,28-12.536,28-28C56,12.536,43.464,0,28,0z"/>
</g>
<path style="fill:#BDC3C7;" d="M22.5,0.543C9.67,3.099,0,14.419,0,28s9.67,24.901,22.5,27.457C35.33,52.901,45,41.581,45,28
	S35.33,3.099,22.5,0.543z"/>
<circle style="fill:#BDC3C7;" cx="39" cy="9" r="1"/>
<circle style="fill:#BDC3C7;" cx="35" cy="5" r="1"/>
<circle style="fill:#BDC3C7;" cx="39" cy="49" r="1"/>
<circle style="fill:#BDC3C7;" cx="35" cy="53" r="1"/>
<circle style="fill:#BDC3C7;" cx="46" cy="9" r="1"/>
<circle style="fill:#BDC3C7;" cx="43" cy="13" r="1"/>
<circle style="fill:#BDC3C7;" cx="47" cy="17" r="1"/>
<circle style="fill:#BDC3C7;" cx="47" cy="25" r="1"/>
<circle style="fill:#BDC3C7;" cx="47" cy="33" r="1"/>
<circle style="fill:#BDC3C7;" cx="47" cy="41" r="1"/>
<circle style="fill:#BDC3C7;" cx="43" cy="45" r="1"/>
<circle style="fill:#BDC3C7;" cx="51" cy="21" r="1"/>
<circle style="fill:#BDC3C7;" cx="54" cy="25" r="1"/>
<circle style="fill:#BDC3C7;" cx="51" cy="29" r="1"/>
<circle style="fill:#BDC3C7;" cx="51" cy="37" r="1"/>
<g>
</g>
<g>
</g>
<g>
</g>
<g>
</g>
<g>
</g>
<g>
</g>
<g>
</g>
<g>
</g>
<g>
</g>
<g>
</g>
<g>
</g>
<g>
</g>
<g>
</g>
<g>
</g>
<g>
</g>
</svg>
