<?xml version="1.0" encoding="iso-8859-1"?>
<!-- Generator: Adobe Illustrator 19.0.0, SVG Export Plug-In . SVG Version: 6.00 Build 0)  -->
<svg version="1.1" id="Capa_1" xmlns="http://www.w3.org/2000/svg" xmlns:xlink="http://www.w3.org/1999/xlink" x="0px" y="0px"
	 viewBox="0 0 56 56" style="enable-background:new 0 0 56 56;" xml:space="preserve">
<g>
	<path style="fill:#95A5A5;" d="M28,0c-4.489,0-8.717,1.08-12.476,2.959C24.698,7.557,31,17.04,31,28s-6.302,20.443-15.476,25.041
		C19.283,54.92,23.511,56,28,56c15.464,0,28-12.536,28-28C56,12.536,43.464,0,28,0z"/>
</g>
<path style="fill:#BDC3C7;" d="M15.5,2.946C24.688,7.539,31,17.03,31,28c0,10.97-6.313,20.461-15.5,25.054
	C6.313,48.461,0,38.97,0,28C0,17.03,6.313,7.539,15.5,2.946z"/>
<circle style="fill:#BDC3C7;" cx="29" cy="9" r="1"/>
<circle style="fill:#BDC3C7;" cx="29" cy="1" r="1"/>
<circle style="fill:#BDC3C7;" cx="25" cy="5" r="1"/>
<circle style="fill:#BDC3C7;" cx="29" cy="41" r="1"/>
<circle style="fill:#BDC3C7;" cx="29" cy="49" r="1"/>
<circle style="fill:#BDC3C7;" cx="25" cy="53" r="1"/>
<circle style="fill:#BDC3C7;" cx="37" cy="9" r="1"/>
<circle style="fill:#BDC3C7;" cx="45" cy="9" r="1"/>
<circle style="fill:#BDC3C7;" cx="33" cy="13" r="1"/>
<circle style="fill:#BDC3C7;" cx="41" cy="13" r="1"/>
<circle style="fill:#BDC3C7;" cx="33" cy="5" r="1"/>
<circle style="fill:#BDC3C7;" cx="41" cy="5" r="1"/>
<circle style="fill:#BDC3C7;" cx="37" cy="17" r="1"/>
<circle style="fill:#BDC3C7;" cx="45" cy="17" r="1"/>
<circle style="fill:#BDC3C7;" cx="33" cy="21" r="1"/>
<circle style="fill:#BDC3C7;" cx="41" cy="21" r="1"/>
<circle style="fill:#BDC3C7;" cx="37" cy="25" r="1"/>
<circle style="fill:#BDC3C7;" cx="45" cy="25" r="1"/>
<circle style="fill:#BDC3C7;" cx="33" cy="29" r="1"/>
<circle style="fill:#BDC3C7;" cx="41" cy="29" r="1"/>
<circle style="fill:#BDC3C7;" cx="37" cy="33" r="1"/>
<circle style="fill:#BDC3C7;" cx="45" cy="33" r="1"/>
<circle style="fill:#BDC3C7;" cx="33" cy="37" r="1"/>
<circle style="fill:#BDC3C7;" cx="41" cy="37" r="1"/>
<circle style="fill:#BDC3C7;" cx="37" cy="41" r="1"/>
<circle style="fill:#BDC3C7;" cx="45" cy="41" r="1"/>
<circle style="fill:#BDC3C7;" cx="33" cy="45" r="1"/>
<circle style="fill:#BDC3C7;" cx="41" cy="45" r="1"/>
<circle style="fill:#BDC3C7;" cx="37" cy="49" r="1"/>
<circle style="fill:#BDC3C7;" cx="45" cy="49" r="1"/>
<circle style="fill:#BDC3C7;" cx="33" cy="53" r="1"/>
<circle style="fill:#BDC3C7;" cx="49" cy="13" r="1"/>
<circle style="fill:#BDC3C7;" cx="49" cy="21" r="1"/>
<circle style="fill:#BDC3C7;" cx="53" cy="25" r="1"/>
<circle style="fill:#BDC3C7;" cx="49" cy="29" r="1"/>
<circle style="fill:#BDC3C7;" cx="53" cy="33" r="1"/>
<circle style="fill:#BDC3C7;" cx="49" cy="37" r="1"/>
<circle style="fill:#BDC3C7;" cx="49" cy="45" r="1"/>
<g>
</g>
<g>
</g>
<g>
</g>
<g>
</g>
<g>
</g>
<g>
</g>
<g>
</g>
<g>
</g>
<g>
</g>
<g>
</g>
<g>
</g>
<g>
</g>
<g>
</g>
<g>
</g>
<g>
</g>
</svg>
