<?xml version="1.0" encoding="iso-8859-1"?>
<!-- Generator: Adobe Illustrator 19.0.0, SVG Export Plug-In . SVG Version: 6.00 Build 0)  -->
<svg version="1.1" id="Capa_1" xmlns="http://www.w3.org/2000/svg" xmlns:xlink="http://www.w3.org/1999/xlink" x="0px" y="0px"
	 viewBox="0 0 56 56" style="enable-background:new 0 0 56 56;" xml:space="preserve">
<g>
	<path style="fill:#95A5A5;" d="M11,28c0-13.569,9.654-24.879,22.466-27.448C31.698,0.199,29.873,0,28,0C12.536,0,0,12.536,0,28
		c0,15.464,12.536,28,28,28c1.873,0,3.698-0.198,5.466-0.552C20.654,52.879,11,41.569,11,28z"/>
</g>
<path style="fill:#BDC3C7;" d="M33.5,0.543C46.33,3.099,56,14.419,56,28s-9.67,24.901-22.5,27.457C20.67,52.901,11,41.581,11,28
	S20.67,3.099,33.5,0.543z"/>
<circle style="fill:#BDC3C7;" cx="17" cy="9" r="1"/>
<circle style="fill:#BDC3C7;" cx="21" cy="5" r="1"/>
<circle style="fill:#BDC3C7;" cx="17" cy="49" r="1"/>
<circle style="fill:#BDC3C7;" cx="21" cy="53" r="1"/>
<circle style="fill:#BDC3C7;" cx="11" cy="9" r="1"/>
<circle style="fill:#BDC3C7;" cx="13" cy="13" r="1"/>
<circle style="fill:#BDC3C7;" cx="9" cy="17" r="1"/>
<circle style="fill:#BDC3C7;" cx="9" cy="25" r="1"/>
<circle style="fill:#BDC3C7;" cx="9" cy="33" r="1"/>
<circle style="fill:#BDC3C7;" cx="9" cy="41" r="1"/>
<circle style="fill:#BDC3C7;" cx="13" cy="45" r="1"/>
<circle style="fill:#BDC3C7;" cx="5" cy="21" r="1"/>
<circle style="fill:#BDC3C7;" cx="3" cy="25" r="1"/>
<circle style="fill:#BDC3C7;" cx="5" cy="29" r="1"/>
<circle style="fill:#BDC3C7;" cx="5" cy="37" r="1"/>
<g>
</g>
<g>
</g>
<g>
</g>
<g>
</g>
<g>
</g>
<g>
</g>
<g>
</g>
<g>
</g>
<g>
</g>
<g>
</g>
<g>
</g>
<g>
</g>
<g>
</g>
<g>
</g>
<g>
</g>
</svg>
