<?xml version="1.0" encoding="iso-8859-1"?>
<!-- Generator: Adobe Illustrator 19.0.0, SVG Export Plug-In . SVG Version: 6.00 Build 0)  -->
<svg version="1.1" id="Capa_1" xmlns="http://www.w3.org/2000/svg" xmlns:xlink="http://www.w3.org/1999/xlink" x="0px" y="0px"
	 viewBox="0 0 60 60" style="enable-background:new 0 0 60 60;" xml:space="preserve">
<g>
	<path style="fill:#F0C419;" d="M7,31H1c-0.552,0-1,0.448-1,1s0.448,1,1,1h6c0.552,0,1-0.448,1-1S7.552,31,7,31z"/>
	<path style="fill:#F0C419;" d="M59,31h-6c-0.552,0-1,0.448-1,1s0.448,1,1,1h6c0.552,0,1-0.448,1-1S59.552,31,59,31z"/>
	<path style="fill:#F0C419;" d="M30,2c-0.552,0-1,0.448-1,1v6c0,0.552,0.448,1,1,1s1-0.448,1-1V3C31,2.448,30.552,2,30,2z"/>
	<path style="fill:#F0C419;" d="M52.707,9.293c-0.391-0.391-1.023-0.391-1.414,0l-5.736,5.736c-0.391,0.391-0.391,1.023,0,1.414
		c0.195,0.195,0.451,0.293,0.707,0.293s0.512-0.098,0.707-0.293l5.736-5.736C53.098,10.316,53.098,9.684,52.707,9.293z"/>
	<path style="fill:#F0C419;" d="M8.707,9.293c-0.391-0.391-1.023-0.391-1.414,0s-0.391,1.023,0,1.414l5.736,5.736
		c0.195,0.195,0.451,0.293,0.707,0.293s0.512-0.098,0.707-0.293c0.391-0.391,0.391-1.023,0-1.414L8.707,9.293z"/>
	<path style="fill:#F0C419;" d="M40.55,7.146c-0.508-0.217-1.095,0.021-1.311,0.53l-1.172,2.762
		c-0.216,0.508,0.021,1.095,0.53,1.311c0.127,0.054,0.26,0.08,0.39,0.08c0.389,0,0.759-0.229,0.921-0.61l1.172-2.762
		C41.295,7.949,41.058,7.362,40.55,7.146z"/>
	<path style="fill:#F0C419;" d="M21.187,7.519c-0.207-0.512-0.788-0.757-1.302-0.553c-0.512,0.207-0.76,0.79-0.553,1.302
		l1.124,2.782c0.157,0.39,0.532,0.626,0.928,0.626c0.125,0,0.251-0.024,0.374-0.073c0.512-0.207,0.76-0.79,0.553-1.302L21.187,7.519
		z"/>
	<path style="fill:#F0C419;" d="M9.219,22.093L6.458,20.92c-0.508-0.216-1.095,0.021-1.311,0.53
		c-0.216,0.508,0.021,1.095,0.53,1.311l2.762,1.172c0.127,0.054,0.26,0.08,0.39,0.08c0.389,0,0.759-0.229,0.921-0.61
		C9.965,22.896,9.728,22.309,9.219,22.093z"/>
	<path style="fill:#F0C419;" d="M55.034,21.886c-0.207-0.512-0.788-0.758-1.302-0.553l-2.782,1.124
		c-0.512,0.207-0.76,0.79-0.553,1.302c0.157,0.39,0.532,0.626,0.928,0.626c0.125,0,0.251-0.024,0.374-0.073l2.782-1.124
		C54.994,22.98,55.241,22.397,55.034,21.886z"/>
</g>
<circle style="fill:#F0C419;" cx="30" cy="32" r="20"/>
<circle style="fill:#EDE21B;" cx="30" cy="32" r="15"/>
<g>
	<path style="fill:#FFFFFF;" d="M29,44c0.256,0,0.512-0.098,0.707-0.293l3-3c0.391-0.391,0.391-1.023,0-1.414s-1.023-0.391-1.414,0
		l-3,3c-0.391,0.391-0.391,1.023,0,1.414C28.488,43.902,28.744,44,29,44z"/>
	<path style="fill:#FFFFFF;" d="M35,38c0.256,0,0.512-0.098,0.707-0.293l3-3c0.391-0.391,0.391-1.023,0-1.414s-1.023-0.391-1.414,0
		l-3,3c-0.391,0.391-0.391,1.023,0,1.414C34.488,37.902,34.744,38,35,38z"/>
	<path style="fill:#D0E8F9;" d="M25.293,53.293l-3,3c-0.391,0.391-0.391,1.023,0,1.414C22.488,57.902,22.744,58,23,58
		s0.512-0.098,0.707-0.293l3-3c0.391-0.391,0.391-1.023,0-1.414S25.684,52.902,25.293,53.293z"/>
	<path style="fill:#FFFFFF;" d="M32.707,47.293c-0.391-0.391-1.023-0.391-1.414,0l-3,3c-0.391,0.391-0.391,1.023,0,1.414
		C28.488,51.902,28.744,52,29,52s0.512-0.098,0.707-0.293l3-3C33.098,48.316,33.098,47.684,32.707,47.293z"/>
	<path style="fill:#FFFFFF;" d="M35,46c0.256,0,0.512-0.098,0.707-0.293l3-3c0.391-0.391,0.391-1.023,0-1.414s-1.023-0.391-1.414,0
		l-3,3c-0.391,0.391-0.391,1.023,0,1.414C34.488,45.902,34.744,46,35,46z"/>
	<path style="fill:#FFFFFF;" d="M25.293,37.293l-3,3c-0.391,0.391-0.391,1.023,0,1.414C22.488,41.902,22.744,42,23,42
		s0.512-0.098,0.707-0.293l3-3c0.391-0.391,0.391-1.023,0-1.414S25.684,36.902,25.293,37.293z"/>
	<path style="fill:#FFFFFF;" d="M19.293,43.293l-3,3c-0.391,0.391-0.391,1.023,0,1.414C16.488,47.902,16.744,48,17,48
		s0.512-0.098,0.707-0.293l3-3c0.391-0.391,0.391-1.023,0-1.414S19.684,42.902,19.293,43.293z"/>
	<path style="fill:#FFFFFF;" d="M25.293,45.293l-3,3c-0.391,0.391-0.391,1.023,0,1.414C22.488,49.902,22.744,50,23,50
		s0.512-0.098,0.707-0.293l3-3c0.391-0.391,0.391-1.023,0-1.414S25.684,44.902,25.293,45.293z"/>
	<path style="fill:#D0E8F9;" d="M19.293,51.293l-3,3c-0.391,0.391-0.391,1.023,0,1.414C16.488,55.902,16.744,56,17,56
		s0.512-0.098,0.707-0.293l3-3c0.391-0.391,0.391-1.023,0-1.414S19.684,50.902,19.293,51.293z"/>
	<path style="fill:#FFFFFF;" d="M29,36c0.256,0,0.512-0.098,0.707-0.293l3-3c0.391-0.391,0.391-1.023,0-1.414s-1.023-0.391-1.414,0
		l-3,3c-0.391,0.391-0.391,1.023,0,1.414C28.488,35.902,28.744,36,29,36z"/>
	<path style="fill:#D0E8F9;" d="M34.293,52.293l-3,3c-0.391,0.391-0.391,1.023,0,1.414C31.488,56.902,31.744,57,32,57
		s0.512-0.098,0.707-0.293l3-3c0.391-0.391,0.391-1.023,0-1.414S34.684,51.902,34.293,52.293z"/>
	<path style="fill:#D0E8F9;" d="M41.707,46.293c-0.391-0.391-1.023-0.391-1.414,0l-3,3c-0.391,0.391-0.391,1.023,0,1.414
		C37.488,50.902,37.744,51,38,51s0.512-0.098,0.707-0.293l3-3C42.098,47.316,42.098,46.684,41.707,46.293z"/>
</g>
<g>
</g>
<g>
</g>
<g>
</g>
<g>
</g>
<g>
</g>
<g>
</g>
<g>
</g>
<g>
</g>
<g>
</g>
<g>
</g>
<g>
</g>
<g>
</g>
<g>
</g>
<g>
</g>
<g>
</g>
</svg>
