<?xml version="1.0" encoding="iso-8859-1"?>
<!-- Generator: Adobe Illustrator 19.0.0, SVG Export Plug-In . SVG Version: 6.00 Build 0)  -->
<svg version="1.1" id="Capa_1" xmlns="http://www.w3.org/2000/svg" xmlns:xlink="http://www.w3.org/1999/xlink" x="0px" y="0px"
	 viewBox="0 0 60 60" style="enable-background:new 0 0 60 60;" xml:space="preserve">
<g>
	<path style="fill:#F0C419;" d="M7,29.484H1c-0.552,0-1,0.448-1,1s0.448,1,1,1h6c0.552,0,1-0.448,1-1S7.552,29.484,7,29.484z"/>
	<path style="fill:#F0C419;" d="M59,29.484h-6c-0.553,0-1,0.448-1,1s0.447,1,1,1h6c0.553,0,1-0.448,1-1S59.553,29.484,59,29.484z"/>
	<path style="fill:#F0C419;" d="M30,0.484c-0.552,0-1,0.448-1,1v6c0,0.552,0.448,1,1,1s1-0.448,1-1v-6
		C31,0.932,30.552,0.484,30,0.484z"/>
	<path style="fill:#F0C419;" d="M52.707,7.777c-0.391-0.391-1.023-0.391-1.414,0l-5.736,5.736c-0.391,0.391-0.391,1.023,0,1.414
		c0.195,0.195,0.451,0.293,0.707,0.293s0.512-0.098,0.707-0.293l5.736-5.736C53.098,8.801,53.098,8.168,52.707,7.777z"/>
	<path style="fill:#F0C419;" d="M8.707,7.777c-0.391-0.391-1.023-0.391-1.414,0s-0.391,1.023,0,1.414l5.736,5.736
		c0.195,0.195,0.451,0.293,0.707,0.293s0.512-0.098,0.707-0.293c0.391-0.391,0.391-1.023,0-1.414L8.707,7.777z"/>
	<path style="fill:#F0C419;" d="M40.55,5.631c-0.508-0.217-1.096,0.021-1.311,0.53l-1.172,2.762
		c-0.216,0.508,0.021,1.095,0.53,1.311c0.127,0.054,0.26,0.08,0.39,0.08c0.389,0,0.759-0.229,0.921-0.61l1.172-2.762
		C41.295,6.434,41.058,5.847,40.55,5.631z"/>
	<path style="fill:#F0C419;" d="M21.187,6.003C20.981,5.491,20.4,5.246,19.886,5.45c-0.512,0.207-0.76,0.79-0.553,1.302l1.124,2.782
		c0.157,0.39,0.532,0.626,0.928,0.626c0.125,0,0.251-0.024,0.374-0.073c0.512-0.207,0.76-0.79,0.553-1.302L21.187,6.003z"/>
	<path style="fill:#F0C419;" d="M9.219,20.577l-2.762-1.172c-0.508-0.216-1.096,0.021-1.311,0.53
		c-0.216,0.508,0.021,1.095,0.53,1.311l2.762,1.172c0.127,0.054,0.26,0.08,0.39,0.08c0.389,0,0.759-0.229,0.921-0.61
		C9.965,21.38,9.728,20.793,9.219,20.577z"/>
	<path style="fill:#F0C419;" d="M55.033,20.37c-0.207-0.513-0.789-0.759-1.302-0.553l-2.781,1.124
		c-0.512,0.207-0.759,0.79-0.552,1.302c0.157,0.39,0.531,0.626,0.927,0.626c0.125,0,0.252-0.024,0.375-0.073l2.781-1.124
		C54.993,21.465,55.24,20.882,55.033,20.37z"/>
</g>
<circle style="fill:#F0C419;" cx="30" cy="30.484" r="20"/>
<circle style="fill:#EDE21B;" cx="30" cy="30.484" r="15"/>
<g>
	<path style="fill:#E6E7E8;" d="M43.83,44.118L41,42.484l2.83-1.634c0.479-0.276,0.642-0.888,0.366-1.366
		c-0.277-0.479-0.889-0.644-1.366-0.366L40,40.752v-3.268c0-0.552-0.448-1-1-1s-1,0.448-1,1v3.268l-2.83-1.634
		c-0.48-0.277-1.09-0.113-1.366,0.366c-0.276,0.479-0.112,1.09,0.366,1.366L37,42.484l-2.83,1.634
		c-0.479,0.276-0.642,0.888-0.366,1.366c0.186,0.321,0.521,0.5,0.867,0.5c0.169,0,0.342-0.043,0.499-0.134L38,44.217v3.268
		c0,0.552,0.448,1,1,1s1-0.448,1-1v-3.268l2.83,1.634c0.158,0.091,0.33,0.134,0.499,0.134c0.346,0,0.682-0.179,0.867-0.5
		C44.472,45.006,44.309,44.395,43.83,44.118z"/>
	<path style="fill:#E6E7E8;" d="M25.196,45.484c0.276-0.479,0.112-1.09-0.366-1.366L22,42.484l2.83-1.634
		c0.479-0.276,0.642-0.888,0.366-1.366c-0.276-0.479-0.888-0.644-1.366-0.366L21,40.752v-3.268c0-0.552-0.448-1-1-1s-1,0.448-1,1
		v3.268l-2.83-1.634c-0.479-0.277-1.09-0.113-1.366,0.366c-0.276,0.479-0.112,1.09,0.366,1.366L18,42.484l-2.83,1.634
		c-0.479,0.276-0.642,0.888-0.366,1.366c0.186,0.321,0.521,0.5,0.867,0.5c0.169,0,0.342-0.043,0.499-0.134L19,44.217v3.268
		c0,0.552,0.448,1,1,1s1-0.448,1-1v-3.268l2.83,1.634c0.158,0.091,0.33,0.134,0.499,0.134
		C24.675,45.984,25.011,45.805,25.196,45.484z"/>
	<path style="fill:#E6E7E8;" d="M35.196,50.516c-0.276-0.478-0.888-0.643-1.366-0.366L31,51.783v-3.268c0-0.552-0.448-1-1-1
		s-1,0.448-1,1v3.268l-2.83-1.634c-0.48-0.277-1.09-0.112-1.366,0.366c-0.276,0.479-0.112,1.09,0.366,1.366L28,53.516l-2.83,1.634
		c-0.479,0.276-0.642,0.888-0.366,1.366c0.186,0.321,0.521,0.5,0.867,0.5c0.169,0,0.342-0.043,0.499-0.134L29,55.248v3.268
		c0,0.552,0.448,1,1,1s1-0.448,1-1v-3.268l2.83,1.634c0.158,0.091,0.33,0.134,0.499,0.134c0.346,0,0.682-0.179,0.867-0.5
		c0.276-0.479,0.112-1.09-0.366-1.366L32,53.516l2.83-1.634C35.309,51.605,35.472,50.994,35.196,50.516z"/>
</g>
<g>
</g>
<g>
</g>
<g>
</g>
<g>
</g>
<g>
</g>
<g>
</g>
<g>
</g>
<g>
</g>
<g>
</g>
<g>
</g>
<g>
</g>
<g>
</g>
<g>
</g>
<g>
</g>
<g>
</g>
</svg>
