<?xml version="1.0" encoding="iso-8859-1"?>
<!-- Generator: Adobe Illustrator 19.0.0, SVG Export Plug-In . SVG Version: 6.00 Build 0)  -->
<svg version="1.1" id="Capa_1" xmlns="http://www.w3.org/2000/svg" xmlns:xlink="http://www.w3.org/1999/xlink" x="0px" y="0px"
	 viewBox="0 0 60 60" style="enable-background:new 0 0 60 60;" xml:space="preserve">
<g>
	<path style="fill:#F0C419;" d="M30,2.781c-0.552,0-1,0.448-1,1v6c0,0.552,0.448,1,1,1s1-0.448,1-1v-6
		C31,3.229,30.552,2.781,30,2.781z"/>
	<path style="fill:#F0C419;" d="M59,31.781h-6c-0.552,0-1,0.448-1,1s0.448,1,1,1h6c0.552,0,1-0.448,1-1S59.552,31.781,59,31.781z"/>
	<path style="fill:#F0C419;" d="M7,31.781H1c-0.552,0-1,0.448-1,1s0.448,1,1,1h6c0.552,0,1-0.448,1-1S7.552,31.781,7,31.781z"/>
	<path style="fill:#F0C419;" d="M52.707,10.074c-0.391-0.391-1.023-0.391-1.414,0l-5.736,5.736c-0.391,0.391-0.391,1.023,0,1.414
		c0.195,0.195,0.451,0.293,0.707,0.293s0.512-0.098,0.707-0.293l5.736-5.736C53.098,11.097,53.098,10.464,52.707,10.074z"/>
	<path style="fill:#F0C419;" d="M8.707,10.074c-0.391-0.391-1.023-0.391-1.414,0s-0.391,1.023,0,1.414l5.736,5.736
		c0.195,0.195,0.451,0.293,0.707,0.293s0.512-0.098,0.707-0.293c0.391-0.391,0.391-1.023,0-1.414L8.707,10.074z"/>
	<path style="fill:#F0C419;" d="M54.854,22.231c-0.216-0.508-0.804-0.746-1.311-0.53l-2.762,1.172
		c-0.508,0.216-0.746,0.803-0.53,1.311c0.162,0.381,0.532,0.61,0.921,0.61c0.13,0,0.263-0.026,0.39-0.08l2.762-1.172
		C54.832,23.326,55.069,22.739,54.854,22.231z"/>
	<path style="fill:#F0C419;" d="M9.049,23.238l-2.782-1.124c-0.512-0.207-1.095,0.04-1.302,0.553
		c-0.207,0.512,0.041,1.095,0.553,1.302L8.3,25.092c0.123,0.049,0.25,0.073,0.374,0.073c0.396,0,0.771-0.236,0.928-0.626
		C9.809,24.028,9.562,23.445,9.049,23.238z"/>
	<path style="fill:#F0C419;" d="M20.761,8.457c-0.216-0.509-0.804-0.747-1.311-0.53c-0.508,0.216-0.746,0.803-0.53,1.311L20.093,12
		c0.162,0.381,0.532,0.61,0.921,0.61c0.13,0,0.263-0.026,0.39-0.08c0.508-0.216,0.746-0.803,0.53-1.311L20.761,8.457z"/>
	<path style="fill:#F0C419;" d="M40.114,7.747c-0.511-0.207-1.095,0.041-1.302,0.553l-1.124,2.782
		c-0.207,0.512,0.041,1.095,0.553,1.302c0.123,0.049,0.25,0.073,0.374,0.073c0.396,0,0.771-0.236,0.928-0.626l1.124-2.782
		C40.874,8.537,40.626,7.954,40.114,7.747z"/>
</g>
<g>
	<path style="fill:#84B5CB;" d="M2.719,42.476C4.4,40.738,6.631,39.781,9,39.781s4.6,0.957,6.281,2.695L16,43.219l0.719-0.743
		c1.681-1.738,3.912-2.695,6.281-2.695s4.6,0.957,6.281,2.695L30,43.219l0.719-0.743c1.681-1.738,3.912-2.695,6.281-2.695
		s4.6,0.957,6.281,2.695L44,43.219l0.719-0.743c1.681-1.738,3.912-2.695,6.281-2.695s4.6,0.957,6.281,2.695
		c0.384,0.397,1.017,0.409,1.414,0.023c0.396-0.384,0.407-1.017,0.023-1.414c-2.062-2.131-4.803-3.305-7.719-3.305
		c-2.589,0-5.04,0.925-7,2.624c-1.96-1.699-4.411-2.624-7-2.624s-5.04,0.925-7,2.624c-1.96-1.699-4.411-2.624-7-2.624
		s-5.04,0.925-7,2.624c-1.96-1.699-4.411-2.624-7-2.624c-2.916,0-5.657,1.174-7.719,3.305c-0.384,0.397-0.374,1.03,0.023,1.414
		C1.702,42.883,2.333,42.873,2.719,42.476z"/>
	<path style="fill:#84B5CB;" d="M51,44.781c-2.589,0-5.04,0.925-7,2.624c-1.96-1.699-4.411-2.624-7-2.624s-5.04,0.925-7,2.624
		c-1.96-1.699-4.411-2.624-7-2.624s-5.04,0.925-7,2.624c-1.96-1.699-4.411-2.624-7-2.624c-2.916,0-5.657,1.174-7.719,3.305
		c-0.384,0.397-0.374,1.03,0.023,1.414c0.397,0.383,1.029,0.373,1.414-0.023C4.4,47.738,6.631,46.781,9,46.781
		s4.6,0.957,6.281,2.695L16,50.219l0.719-0.743c1.681-1.738,3.912-2.695,6.281-2.695s4.6,0.957,6.281,2.695L30,50.219l0.719-0.743
		c1.681-1.738,3.912-2.695,6.281-2.695s4.6,0.957,6.281,2.695L44,50.219l0.719-0.743c1.681-1.738,3.912-2.695,6.281-2.695
		s4.6,0.957,6.281,2.695c0.384,0.397,1.017,0.409,1.414,0.023c0.396-0.384,0.407-1.017,0.023-1.414
		C56.657,45.955,53.916,44.781,51,44.781z"/>
	<path style="fill:#84B5CB;" d="M51,51.781c-2.589,0-5.04,0.925-7,2.624c-1.96-1.699-4.411-2.624-7-2.624s-5.04,0.925-7,2.624
		c-1.96-1.699-4.411-2.624-7-2.624s-5.04,0.925-7,2.624c-1.96-1.699-4.411-2.624-7-2.624c-2.916,0-5.657,1.174-7.719,3.305
		c-0.384,0.397-0.374,1.03,0.023,1.414c0.397,0.383,1.029,0.373,1.414-0.023C4.4,54.738,6.631,53.781,9,53.781
		s4.6,0.957,6.281,2.695L16,57.219l0.719-0.743c1.681-1.738,3.912-2.695,6.281-2.695s4.6,0.957,6.281,2.695L30,57.219l0.719-0.743
		c1.681-1.738,3.912-2.695,6.281-2.695s4.6,0.957,6.281,2.695L44,57.219l0.719-0.743c1.681-1.738,3.912-2.695,6.281-2.695
		s4.6,0.957,6.281,2.695c0.384,0.396,1.017,0.409,1.414,0.023c0.396-0.384,0.407-1.017,0.023-1.414
		C56.657,52.955,53.916,51.781,51,51.781z"/>
</g>
<g>
	<path style="fill:#F0C419;" d="M16,40.405c1.96-1.699,4.411-2.624,7-2.624s5.04,0.925,7,2.624c1.96-1.699,4.411-2.624,7-2.624
		s5.04,0.925,7,2.624c1.524-1.321,3.347-2.167,5.299-2.481C49.739,36.28,50,34.564,50,32.781c0-11.046-8.954-20-20-20
		s-20,8.954-20,20c0,1.783,0.261,3.499,0.701,5.143C12.653,38.238,14.476,39.083,16,40.405z"/>
</g>
<g>
	<path style="fill:#EDE21B;" d="M23,37.781c2.589,0,5.04,0.925,7,2.624c1.96-1.699,4.411-2.624,7-2.624
		c2.264,0,4.422,0.707,6.239,2.021C44.357,37.706,45,35.321,45,32.781c0-8.284-6.716-15-15-15s-15,6.716-15,15
		c0,2.541,0.643,4.926,1.761,7.021C18.578,38.488,20.736,37.781,23,37.781z"/>
</g>
<g>
</g>
<g>
</g>
<g>
</g>
<g>
</g>
<g>
</g>
<g>
</g>
<g>
</g>
<g>
</g>
<g>
</g>
<g>
</g>
<g>
</g>
<g>
</g>
<g>
</g>
<g>
</g>
<g>
</g>
</svg>
