<?xml version="1.0" encoding="iso-8859-1"?>
<!-- Generator: Adobe Illustrator 19.0.0, SVG Export Plug-In . SVG Version: 6.00 Build 0)  -->
<svg version="1.1" id="Capa_1" xmlns="http://www.w3.org/2000/svg" xmlns:xlink="http://www.w3.org/1999/xlink" x="0px" y="0px"
	 viewBox="0 0 54 54" style="enable-background:new 0 0 54 54;" xml:space="preserve">
<line style="fill:none;stroke:#7F6E5D;stroke-width:2;stroke-linecap:round;stroke-miterlimit:10;" x1="27" y1="28" x2="27" y2="42"/>
<path style="fill:#CB8252;" d="M25,42v6c0,1.103-0.897,2-2,2c-0.761,0-1.424-0.427-1.762-1.055C20.91,48.337,20.233,48,19.542,48
	c-1.559,0-2.505,1.698-1.713,3.041C18.873,52.81,20.8,54,23,54c3.309,0,6-2.691,6-6v-6H25z"/>
<line style="fill:none;stroke:#7F6E5D;stroke-width:2;stroke-linecap:round;stroke-miterlimit:10;" x1="25" y1="38" x2="27" y2="38"/>
<path style="fill:#556080;" d="M26,5c0,0-10.031,4.219-10,21c0,0,4.781-4.406,10,0V5z"/>
<path style="fill:#556080;" d="M30,4.563c0,0,19.778,3.545,20.876,22.438c0,0-5.352-5.078-10.979,0C39.897,27,36.724,9.228,30,4.563
	z"/>
<path style="fill:#8697CB;" d="M28,5c0,0,10.031,4.219,10,21c0,0-4.781-4.406-10,0V5z"/>
<path style="fill:#8697CB;" d="M21.896,5.563C21.896,5.563,5,8.792,4,26c0,0,4.875-4.625,10,0C14,26,15.771,9.813,21.896,5.563z"/>
<path style="fill:none;stroke:#546A79;stroke-width:2;stroke-linecap:round;stroke-miterlimit:10;" d="M15,28c-3.316-4-8.684-4-12,0
	"/>
<path style="fill:none;stroke:#546A79;stroke-width:2;stroke-linecap:round;stroke-miterlimit:10;" d="M27,28c-3.316-4-8.684-4-12,0
	"/>
<path style="fill:none;stroke:#546A79;stroke-width:2;stroke-linecap:round;stroke-miterlimit:10;" d="M39,28c-3.316-4-8.684-4-12,0
	"/>
<path style="fill:none;stroke:#546A79;stroke-width:2;stroke-linecap:round;stroke-miterlimit:10;" d="M51,28c-3.316-4-8.684-4-12,0
	"/>
<path style="fill:none;stroke:#546A79;stroke-width:2;stroke-linecap:round;stroke-miterlimit:10;" d="M3,28C3,14.745,13.745,4,27,4
	s24,10.745,24,24"/>
<path style="fill:none;stroke:#546A79;stroke-width:2;stroke-linecap:round;stroke-miterlimit:10;" d="M15,28
	c0-13.266,5.814-24,13-24"/>
<path style="fill:none;stroke:#546A79;stroke-width:2;stroke-linecap:round;stroke-miterlimit:10;" d="M39,28
	c0-13.266-5.814-24-13-24"/>
<line style="fill:none;stroke:#546A79;stroke-width:2;stroke-linecap:round;stroke-miterlimit:10;" x1="27" y1="28" x2="27" y2="4"/>
<line style="fill:none;stroke:#546A79;stroke-width:2;stroke-linecap:round;stroke-miterlimit:10;" x1="15" y1="28" x2="15" y2="30"/>
<line style="fill:none;stroke:#546A79;stroke-width:2;stroke-linecap:round;stroke-miterlimit:10;" x1="3" y1="28" x2="3" y2="30"/>
<line style="fill:none;stroke:#546A79;stroke-width:2;stroke-linecap:round;stroke-miterlimit:10;" x1="39" y1="28" x2="39" y2="30"/>
<line style="fill:none;stroke:#546A79;stroke-width:2;stroke-linecap:round;stroke-miterlimit:10;" x1="51" y1="28" x2="51" y2="30"/>
<line style="fill:none;stroke:#546A79;stroke-width:2;stroke-linecap:round;stroke-miterlimit:10;" x1="27" y1="4" x2="27" y2="1"/>
<g>
</g>
<g>
</g>
<g>
</g>
<g>
</g>
<g>
</g>
<g>
</g>
<g>
</g>
<g>
</g>
<g>
</g>
<g>
</g>
<g>
</g>
<g>
</g>
<g>
</g>
<g>
</g>
<g>
</g>
</svg>
