<?xml version="1.0" encoding="iso-8859-1"?>
<!-- Generator: Adobe Illustrator 19.0.0, SVG Export Plug-In . SVG Version: 6.00 Build 0)  -->
<svg version="1.1" id="Capa_1" xmlns="http://www.w3.org/2000/svg" xmlns:xlink="http://www.w3.org/1999/xlink" x="0px" y="0px"
	 viewBox="0 0 60 60" style="enable-background:new 0 0 60 60;" xml:space="preserve">
<ellipse transform="matrix(0.7986 0.6018 -0.6018 0.7986 19.7078 -8.2421)" style="fill:#BDD7E5;" cx="22.17" cy="25.329" rx="4" ry="12"/>
<path style="fill:#ABCADD;" d="M15.947,36.213c-0.62,0-1.158-0.169-1.6-0.501c-2.621-1.977-0.057-8.233,3.83-13.392
	c3.55-4.71,7.655-7.875,10.218-7.875c0.619,0,1.157,0.169,1.599,0.501c2.622,1.977,0.059,8.232-3.829,13.392
	C22.614,33.049,18.508,36.213,15.947,36.213z M28.395,16.445c-1.594,0-5.156,2.48-8.62,7.078c-4.283,5.685-5.037,9.979-4.224,10.591
	c0.086,0.065,0.22,0.099,0.396,0.099c1.593,0,5.155-2.48,8.62-7.078c4.283-5.685,5.036-9.979,4.224-10.591
	C28.703,16.479,28.571,16.445,28.395,16.445z"/>
<path style="fill:#E4EFF7;" d="M55.933,42.006l-26.54-26.26c1.764,1.33-0.039,6.698-4.027,11.991
	c-3.988,5.293-8.652,8.506-10.416,7.176l32.559,18.274c1.323,0.997,3.617,0.185,6.609-3.785
	C57.107,45.432,57.256,43.003,55.933,42.006z"/>
<path style="fill:#ABCADD;" d="M48.688,54.574C48.688,54.574,48.688,54.574,48.688,54.574c-0.63,0-1.224-0.188-1.723-0.545
	L14.829,35.993c-0.172-0.075-0.334-0.17-0.482-0.281l1.091-1.671l0.249,0.14c0.072,0.021,0.159,0.032,0.26,0.032
	c1.593,0,5.155-2.48,8.62-7.078c3.898-5.174,5.02-9.431,4.327-10.477l-0.205-0.202l1.305-1.51c0.148,0.112,0.284,0.242,0.404,0.387
	l26.196,25.92c0.585,0.466,1.433,1.516,1.029,3.532c-0.294,1.468-1.205,3.224-2.709,5.218
	C52.629,53.036,50.533,54.574,48.688,54.574z M18.218,35.602l29.891,16.786c0.169,0.127,0.353,0.187,0.579,0.187l0,0
	c0.537,0,2.063-0.368,4.629-3.774c1.646-2.184,2.185-3.602,2.346-4.407c0.154-0.771,0.043-1.307-0.331-1.588l-0.102-0.088
	L30.961,18.705c-0.473,2.852-2.495,6.578-4.797,9.633C23.536,31.825,20.603,34.465,18.218,35.602z"/>
<rect x="7.272" y="15" style="fill:#ABCADD;" width="22" height="2"/>
<g>
	<path style="fill:#E64C3C;" d="M48.526,45.188c1.414-1.876,2.601-3.843,3.46-5.681L50.463,38c-0.802,1.889-2.026,3.983-3.535,5.985
		c-1.507,2-3.182,3.771-4.771,5.06l1.861,1.045C45.546,48.76,47.111,47.066,48.526,45.188z"/>
	<path style="fill:#E64C3C;" d="M43.734,41.578c1.64-2.175,2.955-4.416,3.815-6.461l-1.546-1.53
		c-0.759,2.061-2.139,4.496-3.866,6.788c-1.728,2.293-3.69,4.293-5.464,5.59l1.896,1.065C40.3,45.639,42.093,43.755,43.734,41.578z"
		/>
	<path style="fill:#E64C3C;" d="M38.942,37.967c1.864-2.474,3.309-5.036,4.134-7.276l-1.584-1.568
		c-0.651,2.205-2.164,5.008-4.147,7.64c-1.984,2.633-4.264,4.862-6.205,6.094l1.944,1.092
		C35.009,42.539,37.076,40.443,38.942,37.967z"/>
</g>
<rect x="0.964" y="24.5" transform="matrix(0.3881 0.9216 -0.9216 0.3881 30.3993 5.2161)" style="fill:#ABCADD;" width="20.616" height="2"/>
<line style="fill:none;stroke:#7F8C8D;stroke-width:2;stroke-miterlimit:10;" x1="7.272" y1="49" x2="7.272" y2="9"/>
<circle style="fill:#BDC3C7;stroke:#95A5A5;stroke-width:2;stroke-miterlimit:10;" cx="7.272" cy="5" r="4"/>
<rect x="5.272" y="49" style="fill:#BDC3C7;stroke:#7F8C8D;stroke-width:2;stroke-miterlimit:10;" width="4" height="6"/>
<rect x="3.272" y="55" style="fill:#BDC3C7;stroke:#7F8C8D;stroke-width:2;stroke-miterlimit:10;" width="8" height="4"/>
<g>
</g>
<g>
</g>
<g>
</g>
<g>
</g>
<g>
</g>
<g>
</g>
<g>
</g>
<g>
</g>
<g>
</g>
<g>
</g>
<g>
</g>
<g>
</g>
<g>
</g>
<g>
</g>
<g>
</g>
</svg>
