<?xml version="1.0" encoding="iso-8859-1"?>
<!-- Generator: Adobe Illustrator 19.0.0, SVG Export Plug-In . SVG Version: 6.00 Build 0)  -->
<svg version="1.1" id="Capa_1" xmlns="http://www.w3.org/2000/svg" xmlns:xlink="http://www.w3.org/1999/xlink" x="0px" y="0px"
	 viewBox="0 0 52 52" style="enable-background:new 0 0 52 52;" xml:space="preserve">
<g>
	<path style="fill:#E4ECF4;" d="M30,43c-0.002,0-0.003,0-0.005,0l-15.484,0.074c-0.128,0-0.256-0.006-0.389-0.02l-0.729-0.07
		C7.005,42.666,2,37.403,2,31c0-6.617,5.383-12,12-12h26c4.411,0,8-3.589,8-8V9.515c0-3.328-2.381-6.111-5.539-6.473
		c-0.866-0.1-1.73-0.024-2.571,0.224c-3.438,1.012-5.413,4.632-4.401,8.07c0.156,0.529,0.712,0.838,1.241,0.677
		c0.53-0.155,0.833-0.712,0.677-1.241c-0.7-2.381,0.667-4.887,3.047-5.587c0.584-0.172,1.184-0.223,1.78-0.156
		C44.346,5.271,46,7.242,46,9.515V11c0,3.309-2.691,6-6,6H14c-7.72,0-14,6.28-14,14c0,7.469,5.84,13.61,13.247,13.979l0.676,0.066
		c0.195,0.02,0.392,0.029,0.593,0.029L30.005,45c0.552-0.003,0.998-0.452,0.995-1.005C30.997,43.445,30.55,43,30,43z"/>
	<path style="fill:#E4ECF4;" d="M43.097,33.098l-27.999,0.005L14,33c-1.103,0-2-0.897-2-2c0-1.103,0.897-2,2-2h26
		c0.553,0,1-0.447,1-1s-0.447-1-1-1H14c-2.206,0-4,1.794-4,4c0,2.203,1.79,3.995,3.895,3.995c0.003,0,0.006,0,0.008,0L15,35.098
		h28.097C46.903,35.098,50,38.195,50,42c0,0.089,0.029,0.168,0.05,0.25C50.029,42.332,50,42.412,50,42.5c0,2.481-2.019,4.5-4.5,4.5
		S41,44.982,41,42.5c0-0.553-0.447-1-1-1s-1,0.447-1,1c0,3.584,2.916,6.5,6.5,6.5s6.5-2.916,6.5-6.5c0-0.089-0.029-0.168-0.05-0.25
		C51.971,42.168,52,42.089,52,42C52,37.091,48.006,33.098,43.097,33.098z"/>
	<path style="fill:#E4ECF4;" d="M40,22H14c-4.963,0-9,4.037-9,9c0,4.863,3.805,8.813,8.602,8.989l0.911,0.085l28.584,0.023h0.001
		c0.552,0,1-0.447,1-0.999c0-0.553-0.447-1.001-0.999-1.001l-28.487-0.019l-0.875-0.084C9.959,37.855,7,34.783,7,31
		c0-3.859,3.141-7,7-7h26c6.617,0,12-5.383,12-12c0-0.553-0.447-1-1-1s-1,0.447-1,1C50,17.514,45.514,22,40,22z"/>
</g>
<g>
</g>
<g>
</g>
<g>
</g>
<g>
</g>
<g>
</g>
<g>
</g>
<g>
</g>
<g>
</g>
<g>
</g>
<g>
</g>
<g>
</g>
<g>
</g>
<g>
</g>
<g>
</g>
<g>
</g>
</svg>
