<?xml version="1.0" encoding="iso-8859-1"?>
<!-- Generator: Adobe Illustrator 19.0.0, SVG Export Plug-In . SVG Version: 6.00 Build 0)  -->
<svg version="1.1" id="Capa_1" xmlns="http://www.w3.org/2000/svg" xmlns:xlink="http://www.w3.org/1999/xlink" x="0px" y="0px"
	 viewBox="0 0 60 60" style="enable-background:new 0 0 60 60;" xml:space="preserve">
<g>
	<path style="fill:#F0C419;" d="M30,0c-0.552,0-1,0.448-1,1v6c0,0.552,0.448,1,1,1s1-0.448,1-1V1C31,0.448,30.552,0,30,0z"/>
	<path style="fill:#F0C419;" d="M30,52c-0.552,0-1,0.448-1,1v6c0,0.552,0.448,1,1,1s1-0.448,1-1v-6C31,52.448,30.552,52,30,52z"/>
	<path style="fill:#F0C419;" d="M8,30c0-0.552-0.448-1-1-1H1c-0.552,0-1,0.448-1,1s0.448,1,1,1h6C7.552,31,8,30.552,8,30z"/>
	<path style="fill:#F0C419;" d="M13.029,45.557l-5.736,5.736c-0.391,0.391-0.391,1.023,0,1.414C7.488,52.902,7.744,53,8,53
		s0.512-0.098,0.707-0.293l5.736-5.736c0.391-0.391,0.391-1.023,0-1.414S13.42,45.166,13.029,45.557z"/>
	<path style="fill:#F0C419;" d="M8.707,7.293c-0.391-0.391-1.023-0.391-1.414,0s-0.391,1.023,0,1.414l5.736,5.736
		c0.195,0.195,0.451,0.293,0.707,0.293s0.512-0.098,0.707-0.293c0.391-0.391,0.391-1.023,0-1.414L8.707,7.293z"/>
	<path style="fill:#F0C419;" d="M9.749,38.596c-0.216-0.508-0.803-0.746-1.311-0.53l-2.762,1.172
		c-0.508,0.216-0.746,0.803-0.53,1.311c0.162,0.381,0.532,0.61,0.921,0.61c0.13,0,0.263-0.026,0.39-0.08l2.762-1.172
		C9.728,39.691,9.965,39.104,9.749,38.596z"/>
	<path style="fill:#F0C419;" d="M5.519,21.188L8.3,22.312c0.123,0.049,0.25,0.073,0.374,0.073c0.396,0,0.771-0.236,0.928-0.626
		c0.207-0.512-0.041-1.095-0.553-1.302l-2.782-1.124c-0.513-0.207-1.095,0.04-1.302,0.553C4.759,20.397,5.006,20.98,5.519,21.188z"
		/>
	<path style="fill:#F0C419;" d="M21.014,9.829c0.13,0,0.263-0.026,0.39-0.08c0.508-0.216,0.746-0.803,0.53-1.311l-1.172-2.762
		c-0.215-0.509-0.802-0.747-1.311-0.53c-0.508,0.216-0.746,0.803-0.53,1.311l1.172,2.762C20.254,9.6,20.625,9.829,21.014,9.829z"/>
	<path style="fill:#F0C419;" d="M21.759,50.398c-0.511-0.205-1.095,0.04-1.302,0.553l-1.124,2.782
		c-0.207,0.512,0.041,1.095,0.553,1.302c0.123,0.049,0.25,0.073,0.374,0.073c0.396,0,0.771-0.236,0.928-0.626l1.124-2.782
		C22.519,51.188,22.271,50.605,21.759,50.398z"/>
</g>
<circle style="fill:#F0C419;" cx="31" cy="30" r="20"/>
<g>
	<path style="fill:#E4ECF4;" d="M53,18c0-4.962-4.038-9-9-9c-0.552,0-1,0.448-1,1s0.448,1,1,1c3.86,0,7,3.14,7,7
		c0,1.643-0.573,3.152-1.523,4.347c0.288,0.695,0.528,1.415,0.738,2.147C51.927,22.855,53,20.552,53,18z"/>
	<path style="fill:#E4ECF4;" d="M51,37h-1.284c-0.256,0.685-0.545,1.353-0.873,2H51c3.86,0,7,3.14,7,7s-3.14,7-7,7
		c-0.552,0-1,0.448-1,1s0.448,1,1,1c4.962,0,9-4.038,9-9S55.962,37,51,37z"/>
	<path style="fill:#E4ECF4;" d="M47,18c0,0.011-0.003,0.021-0.003,0.032c0.527,0.703,1.018,1.435,1.45,2.206
		C48.789,19.561,49,18.808,49,18c0-2.757-2.243-5-5-5c-0.667,0-1.302,0.137-1.885,0.375c0.743,0.498,1.439,1.057,2.108,1.647
		C45.772,15.139,47,16.422,47,18z"/>
	<path style="fill:#E4ECF4;" d="M56,46c0-2.757-2.243-5-5-5c-0.552,0-1,0.448-1,1s0.448,1,1,1c1.654,0,3,1.346,3,3s-1.346,3-3,3
		s-3-1.346-3-3c0-0.552-0.448-1-1-1s-1,0.448-1,1c0,2.757,2.243,5,5,5S56,48.757,56,46z"/>
	<path style="fill:#E4ECF4;" d="M50.95,31H53c0.552,0,1-0.448,1-1s-0.448-1-1-1h-2.05c0.017,0.333,0.05,0.662,0.05,1
		S50.966,30.667,50.95,31z"/>
	<path style="fill:#E4ECF4;" d="M59,35c0.552,0,1-0.448,1-1s-0.448-1-1-1h-8.249c-0.102,0.679-0.238,1.345-0.407,2H59z"/>
	<path style="fill:#EFB420;" d="M50.214,24.494c-0.21-0.732-0.449-1.452-0.738-2.147c-1.068,1.342-2.618,2.277-4.384,2.557
		c0.228,0.629,0.425,1.272,0.567,1.937C47.408,26.512,48.978,25.678,50.214,24.494z"/>
	<path style="fill:#EFB420;" d="M44.262,37c-0.372,0.704-0.807,1.368-1.282,2h5.863c0.327-0.647,0.616-1.315,0.873-2H44.262z"/>
	<path style="fill:#EFB420;" d="M41,18c0-1.654,1.346-3,3-3c0.076,0,0.148,0.017,0.223,0.023c-0.668-0.591-1.364-1.149-2.108-1.647
		c-1.633,0.668-2.831,2.175-3.066,3.982c0.601,0.384,1.174,0.806,1.713,1.269C40.904,18.453,41,18.241,41,18z"/>
	<path style="fill:#EFB420;" d="M44,21c-0.305,0-0.568,0.144-0.752,0.359c0.367,0.519,0.705,1.058,1.005,1.622
		c1.838-0.094,3.406-1.185,4.194-2.744c-0.432-0.771-0.923-1.502-1.45-2.206C46.979,19.671,45.643,21,44,21z"/>
	<path style="fill:#EFB420;" d="M39,43h6c0.552,0,1-0.448,1-1s-0.448-1-1-1h-3.826c-0.785,0.726-1.645,1.368-2.572,1.915
		C38.724,42.969,38.858,43,39,43z"/>
	<path style="fill:#EFB420;" d="M45.95,31h5c0.017-0.333,0.05-0.662,0.05-1s-0.034-0.667-0.05-1h-5c0.022,0.332,0.05,0.662,0.05,1
		S45.971,30.668,45.95,31z"/>
	<path style="fill:#EFB420;" d="M50.344,35c0.169-0.655,0.304-1.321,0.407-2h-5.052c-0.14,0.687-0.341,1.35-0.571,2H50.344z"/>
	<path style="fill:#EDE21B;" d="M30,38c0-0.552,0.448-1,1-1h13.262c0.338-0.639,0.622-1.31,0.866-2H26c-0.552,0-1-0.448-1-1
		s0.448-1,1-1h19.699c0.132-0.651,0.206-1.321,0.251-2H22c-0.552,0-1-0.448-1-1s0.448-1,1-1h23.95
		c-0.049-0.735-0.139-1.457-0.289-2.159C45.122,26.943,44.568,27,44,27H26c-0.552,0-1-0.448-1-1s0.448-1,1-1h18
		c0.373,0,0.736-0.039,1.093-0.096c-0.24-0.662-0.514-1.307-0.84-1.922C44.168,22.986,44.086,23,44,23c-0.552,0-1-0.448-1-1
		c0-0.247,0.099-0.466,0.248-0.641c-0.715-1.011-1.549-1.929-2.486-2.733C40.579,18.849,40.311,19,40,19c-0.552,0-1-0.448-1-1
		c0-0.219,0.022-0.432,0.049-0.643C36.722,15.872,33.965,15,31,15c-8.284,0-15,6.716-15,15c0,8.284,6.716,15,15,15
		c2.778,0,5.37-0.769,7.602-2.085C38.248,42.761,38,42.41,38,42c0-0.552,0.448-1,1-1h2.174c0.661-0.611,1.264-1.28,1.806-2H31
		C30.448,39,30,38.552,30,38z M34,21h6c0.552,0,1,0.448,1,1s-0.448,1-1,1h-6c-0.552,0-1-0.448-1-1S33.448,21,34,21z"/>
	<path style="fill:#F0C419;" d="M26,25c-0.552,0-1,0.448-1,1s0.448,1,1,1h18c0.568,0,1.122-0.057,1.66-0.159
		c-0.143-0.665-0.34-1.308-0.567-1.937C44.736,24.961,44.373,25,44,25H26z"/>
	<path style="fill:#F0C419;" d="M31,37c-0.552,0-1,0.448-1,1s0.448,1,1,1h11.98c0.476-0.632,0.91-1.296,1.282-2H31z"/>
	<path style="fill:#EFB420;" d="M40,19c0.311,0,0.579-0.151,0.762-0.374c-0.539-0.463-1.111-0.885-1.713-1.269
		C39.022,17.568,39,17.781,39,18C39,18.552,39.448,19,40,19z"/>
	<path style="fill:#EFB420;" d="M43,22c0,0.552,0.448,1,1,1c0.086,0,0.168-0.014,0.253-0.018c-0.3-0.565-0.638-1.104-1.005-1.622
		C43.099,21.534,43,21.753,43,22z"/>
	<path style="fill:#EFB420;" d="M38,42c0,0.41,0.248,0.761,0.602,0.915c0.927-0.547,1.787-1.189,2.572-1.915H39
		C38.448,41,38,41.448,38,42z"/>
	<path style="fill:#F0C419;" d="M34,23h6c0.552,0,1-0.448,1-1s-0.448-1-1-1h-6c-0.552,0-1,0.448-1,1S33.448,23,34,23z"/>
	<path style="fill:#F0C419;" d="M21,30c0,0.552,0.448,1,1,1h23.95c0.022-0.332,0.05-0.662,0.05-1s-0.029-0.668-0.05-1H22
		C21.448,29,21,29.448,21,30z"/>
	<path style="fill:#F0C419;" d="M25,34c0,0.552,0.448,1,1,1h19.128c0.23-0.65,0.431-1.313,0.571-2H26C25.448,33,25,33.448,25,34z"/>
</g>
<g>
</g>
<g>
</g>
<g>
</g>
<g>
</g>
<g>
</g>
<g>
</g>
<g>
</g>
<g>
</g>
<g>
</g>
<g>
</g>
<g>
</g>
<g>
</g>
<g>
</g>
<g>
</g>
<g>
</g>
</svg>
